<svg id="Layer_1" data-name="Layer 1" xmlns="http://www.w3.org/2000/svg" xmlns:xlink="http://www.w3.org/1999/xlink" viewBox="0 0 300 300"><defs><style>.cls-1{fill:#1e1e20;}.cls-2{fill:#fff;}.cls-3{fill:url(#linear-gradient);}</style><linearGradient id="linear-gradient" x1="-1203.29506" y1="263.54466" x2="-1202.35511" y2="263.54466" gradientTransform="matrix(41.78, 19.48, 19.48, -41.78, 45181.6277, 34585.86198)" gradientUnits="userSpaceOnUse"><stop offset="0" stop-color="#eb4c00"/><stop offset="1" stop-color="#f2a900"/></linearGradient></defs><rect class="cls-1" width="300" height="300"/><path class="cls-2" d="M144.60849,151.93"/><path class="cls-2" d="M144.60849,151.93"/><path class="cls-2" d="M145.55849,152"/><path class="cls-2" d="M146.68849,151.74"/><path class="cls-2" d="M145.22849,152.07"/><path class="cls-2" d="M148.75848,151.74"/><path class="cls-2" d="M148.52849,151.8"/><path class="cls-2" d="M151.0985,146.26"/><path class="cls-2" d="M151.26849,143.2"/><path class="cls-2" d="M151.26849,143.2"/><path class="cls-2" d="M151.16849,141.29"/><path class="cls-2" d="M141.1785,150.91"/><path class="cls-2" d="M136.9285,151.84"/><path class="cls-2" d="M139.0985,155.86"/><path class="cls-2" d="M138.99849,152.73"/><path class="cls-2" d="M135.2085,154.51"/><path class="cls-2" d="M105.66849,152.36"/><path class="cls-2" d="M105.61849,151.47"/><path class="cls-2" d="M105.36849,152.26"/><path class="cls-2" d="M106.99849,152.83"/><path class="cls-2" d="M106.08849,153.28"/><path class="cls-2" d="M97.32849,139.85"/><path class="cls-2" d="M104.12849,134.51"/><path class="cls-2" d="M97.32849,137.06"/><path class="cls-2" d="M109.51849,151.35"/><path class="cls-2" d="M113.96849,151.05"/><path class="cls-2" d="M115.30849,140.82"/><path class="cls-2" d="M123.00849,153.19"/><path class="cls-2" d="M124.16849,152.1"/><path class="cls-2" d="M146.8485,151.51"/><path class="cls-2" d="M154.19849,144.48"/><path class="cls-2" d="M153.63849,142.74"/><path class="cls-2" d="M153.50848,144.42"/><path class="cls-2" d="M167.94849,142.87"/><path class="cls-2" d="M169.32849,149.16"/><path class="cls-2" d="M170.68849,145.47"/><path class="cls-2" d="M169.62849,149.36"/><path class="cls-2" d="M170.8485,147.58"/><path class="cls-2" d="M170.97849,146.23"/><path class="cls-2" d="M171.43849,147.12"/><path class="cls-2" d="M170.11848,141.78"/><path class="cls-2" d="M171.2085,141.81"/><path class="cls-2" d="M173.44849,141.09"/><path class="cls-2" d="M176.91849,140.59"/><path class="cls-2" d="M178.0385,139.74"/><path class="cls-2" d="M182.77849,151.57"/><path class="cls-2" d="M183.50848,151.7"/><path class="cls-2" d="M187.0985,151.34"/><path class="cls-2" d="M173.77849,140.3"/><path class="cls-2" d="M173.58849,140.63"/><path class="cls-2" d="M172.22849,153.15"/><path class="cls-2" d="M185.54849,153.15"/><path class="cls-2" d="M204.40849,151.74"/><path class="cls-2" d="M201.99849,151.6"/><path class="cls-2" d="M206.25848,131.49"/><path class="cls-2" d="M205.0985,137"/><path class="cls-2" d="M205.8485,131"/><path class="cls-2" d="M205.8485,130.77"/><path class="cls-2" d="M205.69849,130.64"/><path class="cls-2" d="M210.27849,151.47"/><path class="cls-2" d="M210.33849,151.87"/><path class="cls-2" d="M214.32849,150.65"/><path class="cls-2" d="M213.27849,151.37"/><path class="cls-2" d="M219.8485,138"/><path class="cls-2" d="M219.1785,139.77"/><path class="cls-2" d="M220.16849,137"/><path class="cls-2" d="M216.07849,143.86"/><path class="cls-2" d="M215.91849,143.46"/><path class="cls-2" d="M222.24849,151.9"/><path class="cls-2" d="M225.33849,151.21"/><path class="cls-2" d="M226.39848,136"/><path class="cls-2" d="M224.15849,133.31"/><path class="cls-2" d="M226.0685,132.62"/><path class="cls-2" d="M225.99849,133.21"/><path class="cls-2" d="M226.8485,130.14"/><path class="cls-2" d="M230.77849,132"/><path class="cls-2" d="M227.97849,130.93"/><path class="cls-2" d="M227.3185,133.57"/><path class="cls-2" d="M230.61848,141"/><path class="cls-2" d="M229.8485,140.63"/><path class="cls-2" d="M232.49849,140.3"/><path class="cls-2" d="M215.64848,140.43"/><path class="cls-2" d="M219.8485,138.75"/><path class="cls-2" d="M220.0685,138.58"/><path class="cls-2" d="M239.21849,151.84"/><path class="cls-2" d="M238.9585,151.34"/><path class="cls-2" d="M253.0985,142.37"/><path class="cls-2" d="M250.55849,151.37"/><path class="cls-2" d="M247.13849,151.21"/><path class="cls-2" d="M257.7785,151.67"/><path class="cls-2" d="M260.94849,151.18"/><path class="cls-2" d="M201.71849,151.87"/><path class="cls-2" d="M124.32849,151.23"/><path class="cls-2" d="M124.77849,152"/><path class="cls-2" d="M159.19849,152.46"/><path class="cls-2" d="M243.30849,152.91"/><path class="cls-2" d="M119.99925,147.69434v-9.75977c0-1.43945-.64013-2.46289-2.3042-2.46289a4.1055,4.1055,0,0,0-3.1997,1.791v10.43164h-4.09571v-9.75976c0-1.43946-.63965-2.46291-2.30371-2.46291a4.213,4.213,0,0,0-3.19971,1.791v10.43166h-4.064v-15.455h4.064v1.98438a6.92249,6.92249,0,0,1,5.05568-2.36817c2.272,0,3.74366,1.05567,4.28759,2.78418a6.62088,6.62088,0,0,1,5.31154-2.78418c2.84812,0,4.54393,1.50391,4.54393,4.67188v11.167Z"/><path class="cls-2" d="M137.40794,147.69434V146.0625a6.30419,6.30419,0,0,1-4.896,2.01562,5.12218,5.12218,0,0,1-5.3385-4.89631v0h0q-.0048-.11133-.00476-.22278c0-3.64844,2.87939-4.99217,5.34326-4.99217a6.31075,6.31075,0,0,1,4.896,1.88769v-1.95117c0-1.56836-1.34423-2.5918-3.39209-2.5918a6.49782,6.49782,0,0,0-4.44775,1.82326l-1.59961-2.84767A9.98016,9.98016,0,0,1,134.72,131.8555c3.55175,0,6.7837,1.4082,6.7837,5.85547v9.9834Zm0-3.71192V142.0625a4.08784,4.08784,0,0,0-3.26416-1.376c-1.59961,0-2.91162.86426-2.91162,2.33594s1.312,2.30371,2.91162,2.30371A4.064,4.064,0,0,0,137.40794,143.98242Z"/><path class="cls-2" d="M145.50414,147.69434V132.23926h4.064v2.08008a6.77846,6.77846,0,0,1,4.92773-2.46387v3.96777a5.2509,5.2509,0,0,0-4.92773,1.66406v10.207Z"/><path class="cls-2" d="M156.03294,139.95117a7.85674,7.85674,0,0,1,7.60663-8.09913h0q.29229-.00922.58476.00343a7.19251,7.19251,0,0,1,6.11133,2.78418l-2.65625,2.49512a3.746,3.746,0,0,0-3.26367-1.66309,4.12927,4.12927,0,0,0-4.19141,4.47949c0,2.6875,1.72754,4.51172,4.19141,4.51172a3.84859,3.84859,0,0,0,3.26367-1.69629l2.65625,2.4961a7.20684,7.20684,0,0,1-6.11133,2.81541,7.86427,7.86427,0,0,1-8.189-7.52545Q156.02259,140.252,156.03294,139.95117Z"/><path class="cls-2" d="M182.27122,147.69434V146.0625a6.303,6.303,0,0,1-4.89549,2.01562,5.12257,5.12257,0,0,1-5.339-4.8966h0v-.00005q-.00481-.11116-.00478-.22249c0-3.64843,2.87988-4.99218,5.34375-4.99218a6.3089,6.3089,0,0,1,4.89551,1.88769v-1.95117c0-1.56836-1.34375-2.5918-3.3916-2.5918a6.4949,6.4949,0,0,0-4.44727,1.82326l-1.60058-2.84766a9.98322,9.98322,0,0,1,6.75195-2.43164c3.55176,0,6.7832,1.40821,6.7832,5.85547v9.9834Zm0-3.71192V142.0625a4.08546,4.08546,0,0,0-3.26367-1.376c-1.59961,0-2.91211.86426-2.91211,2.33594s1.3125,2.30371,2.91211,2.30371A4.06151,4.06151,0,0,0,182.27122,143.98242Z"/><path class="cls-2" d="M200.991,147.69434v-1.9834a5.95439,5.95439,0,0,1-4.76758,2.36718c-3.87109,0-6.84668-2.94334-6.84668-8.127,0-5.02344,2.91113-8.09571,6.84668-8.09571a5.85982,5.85982,0,0,1,4.76758,2.36817v-7.87207h4.0957v21.34277Zm0-4.99123v-5.47166a4.40385,4.40385,0,0,0-3.48731-1.75977c-2.33593,0-3.93554,1.82324-3.93554,4.47949,0,2.6875,1.59961,4.51172,3.93554,4.51172a4.4066,4.4066,0,0,0,3.48731-1.75977Z"/><path class="cls-2" d="M209.11986,147.69434V132.23926h4.06347v2.08008a6.77856,6.77856,0,0,1,4.92774-2.46387v3.96777a5.251,5.251,0,0,0-4.92774,1.66406v10.207Z"/><path class="cls-2" d="M220.2556,128.14355a2.41607,2.41607,0,1,1,0,.0367Q220.25547,128.16189,220.2556,128.14355Zm.38379,19.5508V132.23926h4.06348v15.45508Z"/><path class="cls-2" d="M238.01439,147.69434V146.0625a6.30316,6.30316,0,0,1-4.89551,2.01562,5.12254,5.12254,0,0,1-5.339-4.89653v-.00012q-.00483-.11116-.00478-.22249c0-3.64843,2.87988-4.99218,5.34375-4.99218a6.3089,6.3089,0,0,1,4.89551,1.88769v-1.95117c0-1.56836-1.34375-2.5918-3.3916-2.5918a6.49491,6.49491,0,0,0-4.44727,1.82326l-1.60058-2.84766a9.98329,9.98329,0,0,1,6.752-2.43164c3.55176,0,6.78321,1.40821,6.78321,5.85547v9.9834Zm0-3.71192V142.0625a4.08548,4.08548,0,0,0-3.26367-1.376c-1.59961,0-2.91114.86426-2.91114,2.33594s1.31153,2.30371,2.91114,2.30371A4.06161,4.06161,0,0,0,238.01439,143.98242Z"/><path class="cls-2" d="M256.54272,147.69434v-9.34375c0-2.14356-1.12011-2.87891-2.84765-2.87891a4.5213,4.5213,0,0,0-3.52051,1.791v10.43164h-4.06348V132.23926h4.06348v1.98437a7.22886,7.22886,0,0,1,5.4082-2.36816c3.42383,0,5.05567,1.91992,5.05567,4.92773v10.91114Z"/><path class="cls-2" d="M101.14427,160.96875v-2.667h1.07129a.80431.80431,0,1,1,.06262,1.60741h-.00055q-.031.00122-.06207,0h-.73975v1.05957Zm1.563-1.86328a.49566.49566,0,0,0-.48195-.509h-.00013a.4906.4906,0,0,0-.04969.00114h-.6997v1.01563h.6997a.49576.49576,0,0,0,.5306-.45827q.0018-.02472.00113-.04955Z"/><path class="cls-2" d="M107.09549,160.96875l-.67578-1.05957h-.53564v1.05957h-.33158v-2.667h1.07129a.78009.78009,0,0,1,.83936.80371.74012.74012,0,0,1-.69531.77637l.71923,1.08691Zm.02393-1.86328a.49673.49673,0,0,0-.53565-.50781h-.6997v1.01953h.6997a.502.502,0,0,0,.53458-.46715q.0015-.02224.001-.04457Z"/><path class="cls-2" d="M109.94066,159.6377a1.32624,1.32624,0,1,1,1.32324,1.3789,1.30255,1.30255,0,0,1-1.32529-1.27939Q109.93774,159.68744,109.94066,159.6377Zm2.30664,0a.99049.99049,0,1,0,.00432.08955Q112.25149,159.68239,112.2473,159.6377Z"/><path class="cls-2" d="M115.16869,160.96875v-2.667h1.74707v.2959h-1.41552v.86035h1.38726v.29492h-1.38721v1.21582Z"/><path class="cls-2" d="M119.43285,160.96875v-2.667h1.74707v.2959H119.7644v.86035h1.3872v.29492h-1.3872v.91994h1.41552v.29588Z"/><path class="cls-2" d="M123.60814,160.59277l.19971-.25586a1.1001,1.1001,0,0,0,.83593.38379c.47559,0,.62744-.25586.62744-.46386,0-.6875-1.5791-.30373-1.5791-1.25489,0-.43945.3916-.74414.91944-.74414a1.25452,1.25452,0,0,1,.94336.376l-.19971.24414a1.00683,1.00683,0,0,0-.77149-.32031c-.31591,0-.54785.17187-.54785.42383,0,.59959,1.5791.25584,1.5791,1.25195,0,.38379-.26368.7832-.98339.7832A1.32621,1.32621,0,0,1,123.60814,160.59277Z"/><path class="cls-2" d="M128.012,160.59277l.2002-.25586a1.09822,1.09822,0,0,0,.83545.38379c.47558,0,.62744-.25586.62744-.46386,0-.6875-1.5791-.30373-1.5791-1.25489,0-.43945.3916-.74414.91943-.74414a1.25446,1.25446,0,0,1,.94335.376l-.19971.24414a1.0068,1.0068,0,0,0-.77149-.32031c-.31591,0-.54785.17187-.54785.42383,0,.59959,1.5791.25584,1.5791,1.25195,0,.38379-.26367.7832-.98339.7832A1.32617,1.32617,0,0,1,128.012,160.59277Z"/><path class="cls-2" d="M132.57591,160.96875v-2.667h.33155v2.667Z"/><path class="cls-2" d="M135.48412,159.6377a1.32625,1.32625,0,1,1,1.32325,1.3789,1.30256,1.30256,0,0,1-1.3253-1.27937h0Q135.4812,159.68744,135.48412,159.6377Zm2.30665,0a.99081.99081,0,1,0,.0043.08952Q137.79494,159.68239,137.79077,159.6377Z"/><path class="cls-2" d="M142.59886,160.96875l-1.55517-2.12695v2.12695h-.33155v-2.667h.33985l1.53515,2.083v-2.083h.33155v2.667Z"/><path class="cls-2" d="M147.50706,160.96875l-.23584-.5957h-1.32713l-.23584.5957h-.37988l1.07519-2.667h.41163l1.07177,2.667Zm-.89941-2.32715-.564,1.43945H147.175Z"/><path class="cls-2" d="M150.25267,160.96875v-2.667h.33105v2.3711H151.823v.29588Z"/><path class="cls-2" d="M159.46361,160.96875l-.58789-2.15039-.58692,2.15039h-.3603l-.75977-2.667h.36817l.59179,2.22364.61132-2.22364h.27636l.61133,2.22364.58789-2.22364h.3711l-.7627,2.667Z"/><path class="cls-2" d="M163.01634,160.96875v-2.667h1.74707v.2959h-1.415v.86035h1.38769v.29492h-1.38769v.91994h1.415v.29588Z"/><path class="cls-2" d="M167.35228,160.96875v-2.667h1.1875a.67327.67327,0,0,1,.74805.67969.60726.60726,0,0,1-.46778.6123.6662.6662,0,0,1,.51953.65528.69518.69518,0,0,1-.77148.71972Zm1.5918-1.93848a.41973.41973,0,0,0-.46-.43261h-.7998v.86035h.7998a.41492.41492,0,0,0,.46-.42774Zm.05174,1.18262a.45246.45246,0,0,0-.49219-.46h-.81933v.91994h.81933a.43969.43969,0,0,0,.4922-.45991Z"/><path class="cls-2" d="M171.9285,160.96875v-2.667h.91211a1.33391,1.33391,0,0,1,.06584,2.667h0q-.03291.00079-.06584,0Zm1.93554-1.33105a.97553.97553,0,0,0-1.02343-1.04h-.58011v2.0752h.58008a.98092.98092,0,0,0,1.02342-1.0352Z"/><path class="cls-2" d="M176.78783,160.96875v-2.667h1.74707v.2959h-1.415v.86035h1.3877v.29492h-1.3877v.91994h1.415v.29588Z"/><path class="cls-2" d="M181.92357,160.96875l-1.0752-2.667h.37989l.89941,2.30274.89941-2.30274h.37989l-1.07129,2.667Z"/><path class="cls-2" d="M188.80443,159.6377a1.33439,1.33439,0,0,1,1.28753-1.37963q.04178-.0014.08356-.00026a1.1846,1.1846,0,0,1,1.01172.52832l-.27637.15528a.89643.89643,0,0,0-.73535-.3877,1.085,1.085,0,0,0,0,2.167.90656.90656,0,0,0,.73535-.3877l.28028.15235a1.20012,1.20012,0,0,1-1.01563.53125,1.33359,1.33359,0,0,1-1.37134-1.29468Q188.803,159.67982,188.80443,159.6377Z"/><path class="cls-2" d="M195.2195,160.96875l-.67481-1.05957h-.53621v1.05957h-.332v-2.667h1.07129a.78038.78038,0,0,1,.83985.80371.74048.74048,0,0,1-.69532.77637l.71973,1.08691Zm.02441-1.86328a.49686.49686,0,0,0-.53613-.50781h-.6993v1.01953h.69922a.50211.50211,0,0,0,.53513-.46671q.00152-.0225.001-.045Z"/><path class="cls-2" d="M200.07591,160.96875l-.23633-.5957H198.5125l-.23537.5957h-.37988l1.07519-2.667h.41211l1.07128,2.667Zm-.89941-2.32715-.56348,1.43945h1.13086Z"/><path class="cls-2" d="M202.864,160.96875v-2.667h1.74707v.2959h-1.415v.86035h1.38769v.29492h-1.38769v1.21582Z"/><path class="cls-2" d="M207.7888,160.96875v-2.37109h-.84375v-.2959h2.02243v.2959h-.84668v2.37109Z"/><path class="cls-2" d="M211.46849,160.96875v-2.667h1.74707v.2959h-1.415v.86035h1.38769v.29492h-1.38777v.91994h1.415v.29588Z"/><path class="cls-2" d="M215.80443,160.96875v-2.667h.91211a1.33391,1.33391,0,0,1,.06584,2.667h0q-.03291.00079-.06584,0ZM217.74,159.6377a.97551.97551,0,0,0-1.02344-1.04h-.58v2.0752h.58006a.98042.98042,0,0,0,1.02341-1.0352Z"/><path class="cls-2" d="M225.79955,160.96875l-.5879-2.15039-.58691,2.15039h-.36035l-.75977-2.667h.36817l.59179,2.22364.61133-2.22364h.27637l.61133,2.22364.58789-2.22364h.37109l-.76269,2.667Z"/><path class="cls-2" d="M229.35326,160.96875v-2.667h.332v2.667Z"/><path class="cls-2" d="M233.029,160.96875v-2.37109h-.84375v-.2959h2.02246v.2959H233.361v2.37109Z"/><path class="cls-2" d="M238.6013,160.96875v-1.22363h-1.55957v1.22363h-.332v-2.667h.332v1.14746h1.55957v-1.14746h.33106v2.667Z"/><path class="cls-2" d="M244.60619,159.6377a1.33438,1.33438,0,0,1,1.28753-1.37963q.04178-.0014.08356-.00026a1.1846,1.1846,0,0,1,1.01172.52832l-.27637.15528a.89643.89643,0,0,0-.73535-.3877,1.085,1.085,0,0,0,0,2.167.90659.90659,0,0,0,.73535-.3877l.28027.15235a1.2013,1.2013,0,0,1-1.01562.53125,1.33359,1.33359,0,0,1-1.37134-1.29468Q244.60476,159.67982,244.60619,159.6377Z"/><path class="cls-2" d="M251.36888,160.96875l-.23633-.5957H249.8054l-.23535.5957h-.37988l1.0752-2.667h.41209l1.07129,2.667Zm-.89941-2.32715-.56348,1.43945h1.13086Z"/><rect class="cls-2" x="46.78717" y="129.40001" width="37.18681" height="32.59998"/><path class="cls-2" d="M255.69994,160.96875l-.67481-1.05957H254.489v1.05957h-.332v-2.667h1.07129a.78051.78051,0,0,1,.83983.80371.74048.74048,0,0,1-.69532.77637l.71973,1.08691Zm.02441-1.86328a.49686.49686,0,0,0-.53613-.50781H254.489v1.01953h.69922a.50212.50212,0,0,0,.53509-.46675Q255.72483,159.128,255.72435,159.10547Z"/><path class="cls-2" d="M258.65305,160.96875v-2.667h1.74707v.2959h-1.415v.86035h1.38769v.29492h-1.38769v.91994h1.415v.29588Z"/><path class="cls-3" d="M43.84849,124.2v43.2h43.2V124.2Zm34.5,18.1,1.7,1.7,1.7,1.7-3.2,3.2-3.2,3.2-4.9,4.9-5,5-1.7-1.7-1.7-1.7,3.2-3.2,3.2-3.2-1.5-1.5-1.5-1.5-3.2,3.2-3.3,3.2-1.7-1.7-1.7-1.7,3.2-3.2,3.2-3.2-1.5-1.5-1.5-1.5-3.2,3.2-3.2,3.2-1.7-1.7-1.7-1.7,8.2-8.2,8.2-8.2,1.7,1.7,1.7,1.7-3.2,3.2-3.3,3.2,1.5,1.5,1.5,1.5,2.1-2.1,2.1-2.1,3.2,3.2,3.2,3.2m-2.2,2.5-1.5-1.5-1.5-1.5-1,1-1,1,1.5,1.5,1.5,1.5"/></svg>