<svg id="Layer_1" data-name="Layer 1" xmlns="http://www.w3.org/2000/svg" xmlns:xlink="http://www.w3.org/1999/xlink" viewBox="0 0 300 300"><defs><style>.cls-1{fill:#fef2e5;}.cls-2{fill:url(#linear-gradient);}.cls-3{fill:#361c00;}</style><linearGradient id="linear-gradient" x1="-1231.55336" y1="273.9096" x2="-1230.61342" y2="273.9096" gradientTransform="matrix(41.78, 19.48, 19.48, -41.78, 46160.87912, 35569.37957)" gradientUnits="userSpaceOnUse"><stop offset="0" stop-color="#eb4c00"/><stop offset="1" stop-color="#f2a900"/></linearGradient></defs><rect class="cls-1" width="300" height="300"/><path class="cls-2" d="M44.38,124.2v43.2h43.2V124.2Zm34.5,18.1,1.7,1.7,1.7,1.7-3.2,3.2-3.2,3.2-4.9,4.9-5,5-1.7-1.7-1.7-1.7,3.2-3.2,3.2-3.2-1.5-1.5-1.5-1.5-3.2,3.2-3.3,3.2-1.7-1.7-1.7-1.7,3.2-3.2,3.2-3.2-1.5-1.5-1.5-1.5-3.2,3.2-3.2,3.2-1.7-1.7-1.7-1.7,8.2-8.2,8.2-8.2,1.7,1.7,1.7,1.7-3.2,3.2-3.3,3.2,1.5,1.5,1.5,1.5,2.1-2.1,2.1-2.1,3.2,3.2,3.2,3.2m-2.2,2.5-1.5-1.5-1.5-1.5-1,1-1,1,1.5,1.5,1.5,1.5"/><path class="cls-3" d="M145.14,151.93"/><path class="cls-3" d="M145.14,151.93"/><path class="cls-3" d="M146.09,152"/><path class="cls-3" d="M147.22,151.74"/><path class="cls-3" d="M145.76,152.07"/><path class="cls-3" d="M149.29,151.74"/><path class="cls-3" d="M149.06,151.8"/><path class="cls-3" d="M151.63,146.26"/><path class="cls-3" d="M151.8,143.2"/><path class="cls-3" d="M151.8,143.2"/><path class="cls-3" d="M151.7,141.29"/><path class="cls-3" d="M141.71,150.91"/><path class="cls-3" d="M137.46,151.84"/><path class="cls-3" d="M139.63,155.86"/><path class="cls-3" d="M139.53,152.73"/><path class="cls-3" d="M135.74,154.51"/><path class="cls-3" d="M106.2,152.36"/><path class="cls-3" d="M106.15,151.47"/><path class="cls-3" d="M105.9,152.26"/><path class="cls-3" d="M107.53,152.83"/><path class="cls-3" d="M106.62,153.28"/><path class="cls-3" d="M97.86,139.85"/><path class="cls-3" d="M104.66,134.51"/><path class="cls-3" d="M97.86,137.06"/><path class="cls-3" d="M110.05,151.35"/><path class="cls-3" d="M114.5,151.05"/><path class="cls-3" d="M115.84,140.82"/><path class="cls-3" d="M123.54,153.19"/><path class="cls-3" d="M124.7,152.1"/><path class="cls-3" d="M147.38,151.51"/><path class="cls-3" d="M154.73,144.48"/><path class="cls-3" d="M154.17,142.74"/><path class="cls-3" d="M154.04,144.42"/><path class="cls-3" d="M168.48,142.87"/><path class="cls-3" d="M169.86,149.16"/><path class="cls-3" d="M171.22,145.47"/><path class="cls-3" d="M170.16,149.36"/><path class="cls-3" d="M171.38,147.58"/><path class="cls-3" d="M171.51,146.23"/><path class="cls-3" d="M171.97,147.12"/><path class="cls-3" d="M170.65,141.78"/><path class="cls-3" d="M171.74,141.81"/><path class="cls-3" d="M173.98,141.09"/><path class="cls-3" d="M177.45,140.59"/><path class="cls-3" d="M178.57,139.74"/><path class="cls-3" d="M183.31,151.57"/><path class="cls-3" d="M184.04,151.7"/><path class="cls-3" d="M187.63,151.34"/><path class="cls-3" d="M174.31,140.3"/><path class="cls-3" d="M174.12,140.63"/><path class="cls-3" d="M172.76,153.15"/><path class="cls-3" d="M186.08,153.15"/><path class="cls-3" d="M204.94,151.74"/><path class="cls-3" d="M202.53,151.6"/><path class="cls-3" d="M206.79,131.49"/><path class="cls-3" d="M205.63,137"/><path class="cls-3" d="M206.38,131"/><path class="cls-3" d="M206.38,130.77"/><path class="cls-3" d="M206.23,130.64"/><path class="cls-3" d="M210.81,151.47"/><path class="cls-3" d="M210.87,151.87"/><path class="cls-3" d="M214.86,150.65"/><path class="cls-3" d="M213.81,151.37"/><path class="cls-3" d="M220.38,138"/><path class="cls-3" d="M219.71,139.77"/><path class="cls-3" d="M220.7,137"/><path class="cls-3" d="M216.61,143.86"/><path class="cls-3" d="M216.45,143.46"/><path class="cls-3" d="M222.78,151.9"/><path class="cls-3" d="M225.87,151.21"/><path class="cls-3" d="M226.93,136"/><path class="cls-3" d="M224.69,133.31"/><path class="cls-3" d="M226.6,132.62"/><path class="cls-3" d="M226.53,133.21"/><path class="cls-3" d="M227.38,130.14"/><path class="cls-3" d="M231.31,132"/><path class="cls-3" d="M228.51,130.93"/><path class="cls-3" d="M227.85,133.57"/><path class="cls-3" d="M231.15,141"/><path class="cls-3" d="M230.38,140.63"/><path class="cls-3" d="M233.03,140.3"/><path class="cls-3" d="M216.18,140.43"/><path class="cls-3" d="M220.38,138.75"/><path class="cls-3" d="M220.6,138.58"/><path class="cls-3" d="M239.75,151.84"/><path class="cls-3" d="M239.49,151.34"/><path class="cls-3" d="M253.63,142.37"/><path class="cls-3" d="M251.09,151.37"/><path class="cls-3" d="M247.67,151.21"/><path class="cls-3" d="M258.31,151.67"/><path class="cls-3" d="M261.48,151.18"/><path class="cls-3" d="M202.25,151.87"/><path class="cls-3" d="M124.86,151.23"/><path class="cls-3" d="M125.31,152"/><path class="cls-3" d="M159.73,152.46"/><path class="cls-3" d="M243.84,152.91"/><path class="cls-3" d="M120.53076,147.69434v-9.75977c0-1.43945-.64014-2.46289-2.3042-2.46289a4.10545,4.10545,0,0,0-3.1997,1.791v10.43164h-4.09571v-9.75977c0-1.43945-.63965-2.46289-2.30371-2.46289a4.213,4.213,0,0,0-3.19971,1.791v10.43164h-4.064V132.23926h4.064v1.98437a6.92244,6.92244,0,0,1,5.05567-2.36816c2.272,0,3.74365,1.05566,4.2876,2.78418a6.62074,6.62074,0,0,1,5.31152-2.78418c2.84814,0,4.54394,1.50391,4.54394,4.67187v11.167Z"/><path class="cls-3" d="M137.93945,147.69434V146.0625a6.30425,6.30425,0,0,1-4.896,2.01562,5.1222,5.1222,0,0,1-5.34326-5.11914c0-3.64843,2.87939-4.99218,5.34326-4.99218a6.31073,6.31073,0,0,1,4.896,1.88769v-1.95117c0-1.56836-1.34424-2.5918-3.39209-2.5918a6.4978,6.4978,0,0,0-4.44775,1.82325L128.5,134.28711a9.98014,9.98014,0,0,1,6.75146-2.43164c3.55176,0,6.7837,1.4082,6.7837,5.85547v9.9834Zm0-3.71192V142.0625a4.08787,4.08787,0,0,0-3.26416-1.376c-1.59961,0-2.91162.86426-2.91162,2.33594s1.312,2.30371,2.91162,2.30371A4.064,4.064,0,0,0,137.93945,143.98242Z"/><path class="cls-3" d="M146.03564,147.69434V132.23926h4.064v2.08008a6.7785,6.7785,0,0,1,4.92773-2.46387v3.96777a5.25089,5.25089,0,0,0-4.92773,1.66406v10.207Z"/><path class="cls-3" d="M156.56445,139.95117a7.85675,7.85675,0,0,1,8.19141-8.0957,7.19247,7.19247,0,0,1,6.11133,2.78418l-2.65625,2.49512a3.746,3.746,0,0,0-3.26367-1.66309,4.12917,4.12917,0,0,0-4.19141,4.47949c0,2.6875,1.72754,4.51172,4.19141,4.51172a3.84859,3.84859,0,0,0,3.26367-1.69629l2.65625,2.4961a7.20685,7.20685,0,0,1-6.11133,2.81542A7.86424,7.86424,0,0,1,156.56445,139.95117Z"/><path class="cls-3" d="M182.80273,147.69434V146.0625a6.30317,6.30317,0,0,1-4.8955,2.01562,5.12259,5.12259,0,0,1-5.34375-5.11914c0-3.64843,2.87988-4.99218,5.34375-4.99218a6.3089,6.3089,0,0,1,4.8955,1.88769v-1.95117c0-1.56836-1.34375-2.5918-3.3916-2.5918a6.49484,6.49484,0,0,0-4.44726,1.82325l-1.60059-2.84766a9.98309,9.98309,0,0,1,6.75195-2.43164c3.55176,0,6.78321,1.4082,6.78321,5.85547v9.9834Zm0-3.71192V142.0625a4.08546,4.08546,0,0,0-3.26367-1.376c-1.59961,0-2.91211.86426-2.91211,2.33594s1.3125,2.30371,2.91211,2.30371A4.06158,4.06158,0,0,0,182.80273,143.98242Z"/><path class="cls-3" d="M201.52246,147.69434v-1.9834a5.95439,5.95439,0,0,1-4.76758,2.36718c-3.87109,0-6.84668-2.94335-6.84668-8.127,0-5.02344,2.91114-8.0957,6.84668-8.0957a5.85978,5.85978,0,0,1,4.76758,2.36816v-7.87207h4.0957v21.34278Zm0-4.99122v-5.47167a4.40384,4.40384,0,0,0-3.4873-1.75977c-2.33594,0-3.93555,1.82324-3.93555,4.47949,0,2.6875,1.59961,4.51172,3.93555,4.51172A4.40666,4.40666,0,0,0,201.52246,142.70312Z"/><path class="cls-3" d="M209.65137,147.69434V132.23926h4.06347v2.08008a6.77852,6.77852,0,0,1,4.92774-2.46387v3.96777a5.25091,5.25091,0,0,0-4.92774,1.66406v10.207Z"/><path class="cls-3" d="M220.78711,128.14355a2.41607,2.41607,0,0,1,4.832,0,2.41607,2.41607,0,1,1-4.832,0Zm.38379,19.55079V132.23926h4.06348v15.45508Z"/><path class="cls-3" d="M238.5459,147.69434V146.0625a6.30319,6.30319,0,0,1-4.89551,2.01562,5.12259,5.12259,0,0,1-5.34375-5.11914c0-3.64843,2.87988-4.99218,5.34375-4.99218a6.30892,6.30892,0,0,1,4.89551,1.88769v-1.95117c0-1.56836-1.34375-2.5918-3.3916-2.5918a6.49487,6.49487,0,0,0-4.44727,1.82325l-1.60058-2.84766a9.98309,9.98309,0,0,1,6.75195-2.43164c3.55176,0,6.7832,1.4082,6.7832,5.85547v9.9834Zm0-3.71192V142.0625a4.08548,4.08548,0,0,0-3.26367-1.376c-1.59961,0-2.91114.86426-2.91114,2.33594s1.31153,2.30371,2.91114,2.30371A4.0616,4.0616,0,0,0,238.5459,143.98242Z"/><path class="cls-3" d="M257.07422,147.69434v-9.34375c0-2.14356-1.12012-2.87891-2.84766-2.87891a4.52133,4.52133,0,0,0-3.52051,1.791v10.43164h-4.06347V132.23926h4.06347v1.98437a7.22885,7.22885,0,0,1,5.40821-2.36816c3.42383,0,5.05566,1.91992,5.05566,4.92773v10.91114Z"/><text/><path class="cls-3" d="M106.93164,162v-2.667h1.07129a.80433.80433,0,1,1,0,1.60742h-.73926V162Zm1.56348-1.86328a.49555.49555,0,0,0-.53125-.50781h-.7002v1.01562h.7002A.49555.49555,0,0,0,108.49512,160.13672Z"/><path class="cls-3" d="M112.02246,162l-.6748-1.05957h-.53614V162h-.332v-2.667h1.07129a.78026.78026,0,0,1,.83984.80371.73888.73888,0,0,1-.69531.77539L112.415,162Zm.02442-1.86328a.49694.49694,0,0,0-.53614-.50781h-.69922v1.01953h.69922A.50208.50208,0,0,0,112.04688,160.13672Z"/><path class="cls-3" d="M114.00781,160.669a1.32624,1.32624,0,1,1,1.32324,1.3789A1.30227,1.30227,0,0,1,114.00781,160.669Zm2.30664,0a.98621.98621,0,1,0-.9834,1.083A.99058.99058,0,0,0,116.31445,160.669Z"/><path class="cls-3" d="M118.376,162v-2.667h1.74707v.2959h-1.415v.86035h1.38769v.2959H118.708V162Z"/><path class="cls-3" d="M121.7793,162v-2.667h1.74707v.2959h-1.415v.86035H123.499v.2959h-1.38769v.91894h1.415V162Z"/><path class="cls-3" d="M125.09668,161.624l.19922-.25586a1.09933,1.09933,0,0,0,.83594.38379c.47558,0,.62793-.25586.62793-.46386,0-.6875-1.57911-.30371-1.57911-1.25489,0-.43945.39161-.74414.91895-.74414a1.25363,1.25363,0,0,1,.94336.376l-.19922.24414a1.0096,1.0096,0,0,0-.77246-.32031c-.31543,0-.54688.17285-.54688.42383,0,.5996,1.57911.25585,1.57911,1.25195,0,.38379-.26465.7832-.9834.7832A1.32548,1.32548,0,0,1,125.09668,161.624Z"/><path class="cls-3" d="M128.64062,161.624l.19922-.25586a1.09935,1.09935,0,0,0,.83594.38379c.47559,0,.62793-.25586.62793-.46386,0-.6875-1.5791-.30371-1.5791-1.25489,0-.43945.3916-.74414.91894-.74414a1.25363,1.25363,0,0,1,.94336.376l-.19921.24414a1.00961,1.00961,0,0,0-.77247-.32031c-.31543,0-.54687.17285-.54687.42383,0,.5996,1.5791.25585,1.5791,1.25195,0,.38379-.26465.7832-.9834.7832A1.32548,1.32548,0,0,1,128.64062,161.624Z"/><path class="cls-3" d="M132.34375,162v-2.667h.332V162Z"/><path class="cls-3" d="M134.3916,160.669a1.32624,1.32624,0,1,1,1.32324,1.3789A1.30227,1.30227,0,0,1,134.3916,160.669Zm2.30664,0a.98621.98621,0,1,0-.9834,1.083A.99058.99058,0,0,0,136.69824,160.669Z"/><path class="cls-3" d="M140.64746,162l-1.55566-2.12695V162h-.332v-2.667h.33984l1.53516,2.083v-2.083h.332V162Z"/><path class="cls-3" d="M144.69434,162l-.23633-.5957h-1.32715l-.23535.5957h-.37989l1.0752-2.667h.41211L145.07422,162Zm-.89942-2.32715-.56347,1.43945h1.13085Z"/><path class="cls-3" d="M146.5791,162v-2.667h.332v2.37109h1.23926V162Z"/><path class="cls-3" d="M156.30664,162l-.58789-2.15039L155.13184,162h-.36036l-.75976-2.667h.36816l.5918,2.22363.61133-2.22363h.27637l.61132,2.22363.58789-2.22363h.3711L156.667,162Z"/><path class="cls-3" d="M158.999,162v-2.667h1.74707v.2959h-1.415v.86035h1.3877v.2959h-1.3877v.91894h1.415V162Z"/><path class="cls-3" d="M162.47559,162v-2.667h1.1875a.67324.67324,0,0,1,.748.67969.60727.60727,0,0,1-.46777.6123.66622.66622,0,0,1,.51953.65527.69531.69531,0,0,1-.77148.71973Zm1.59179-1.93848a.41977.41977,0,0,0-.46-.43261h-.7998v.86035h.7998A.41478.41478,0,0,0,164.06738,160.06152Zm.05176,1.18262a.45163.45163,0,0,0-.49219-.459h-.81933v.91894h.81933A.43976.43976,0,0,0,164.11914,161.24414Z"/><path class="cls-3" d="M170.66309,162v-2.667h.91211a1.33391,1.33391,0,1,1,0,2.667Zm1.93554-1.33105a.97552.97552,0,0,0-1.02343-1.04h-.58008v2.07519h.58008A.98061.98061,0,0,0,172.59863,160.669Z"/><path class="cls-3" d="M174.66309,162v-2.667h1.74707v.2959h-1.415v.86035h1.38769v.2959h-1.38769v.91894h1.415V162Z"/><path class="cls-3" d="M177.97949,161.624l.19922-.25586a1.09935,1.09935,0,0,0,.83594.38379c.47558,0,.62793-.25586.62793-.46386,0-.6875-1.5791-.30371-1.5791-1.25489,0-.43945.3916-.74414.91894-.74414a1.25363,1.25363,0,0,1,.94336.376l-.19922.24414a1.00959,1.00959,0,0,0-.77246-.32031c-.31543,0-.54687.17285-.54687.42383,0,.5996,1.5791.25585,1.5791,1.25195,0,.38379-.26465.7832-.9834.7832A1.32548,1.32548,0,0,1,177.97949,161.624Z"/><path class="cls-3" d="M181.68262,162v-2.667h.332V162Z"/><path class="cls-3" d="M183.73145,160.669a1.33145,1.33145,0,0,1,1.37109-1.37989,1.26666,1.26666,0,0,1,1.03516.4961l-.26368.168a.98444.98444,0,0,0-.77148-.36816,1.085,1.085,0,0,0,0,2.167,1.05035,1.05035,0,0,0,.71973-.28808v-.53907h-.91993v-.29589h1.24707v.959a1.3746,1.3746,0,0,1-1.04687.46387A1.33672,1.33672,0,0,1,183.73145,160.669Z"/><path class="cls-3" d="M189.77832,162l-1.55566-2.12695V162h-.332v-2.667h.33985l1.53515,2.083v-2.083h.332V162Z"/><path class="cls-3" d="M196.28711,160.669a1.33437,1.33437,0,0,1,1.37109-1.37989,1.1846,1.1846,0,0,1,1.01172.52832l-.27637.15528a.89641.89641,0,0,0-.73535-.3877,1.085,1.085,0,0,0,0,2.167.90656.90656,0,0,0,.73535-.38769l.28028.15234a1.20007,1.20007,0,0,1-1.01563.53125A1.33356,1.33356,0,0,1,196.28711,160.669Z"/><path class="cls-3" d="M201.84277,162l-.67578-1.05957h-.53613V162h-.332v-2.667h1.07129a.78026.78026,0,0,1,.83984.80371.73888.73888,0,0,1-.69531.77539L202.23438,162Zm.02344-1.86328a.49665.49665,0,0,0-.53516-.50781h-.70019v1.01953h.70019A.50181.50181,0,0,0,201.86621,160.13672Z"/><path class="cls-3" d="M205.83789,162l-.23633-.5957h-1.32715l-.23535.5957h-.37988l1.0752-2.667h.4121L206.21777,162Zm-.89941-2.32715-.56348,1.43945h1.13086Z"/><path class="cls-3" d="M207.7666,162v-2.667h1.74707v.2959h-1.415v.86035h1.3877v.2959h-1.3877V162Z"/><path class="cls-3" d="M211.83105,162v-2.37109h-.84375v-.2959h2.02247v.2959h-.84668V162Z"/><path class="cls-3" d="M214.65039,162v-2.667h1.74707v.2959h-1.415v.86035h1.3877v.2959h-1.3877v.91894h1.415V162Z"/><path class="cls-3" d="M218.127,162v-2.667h.91211a1.33391,1.33391,0,1,1,0,2.667Zm1.93555-1.33105a.97553.97553,0,0,0-1.02344-1.04H218.459v2.07519h.58008A.98062.98062,0,0,0,220.0625,160.669Z"/><path class="cls-3" d="M228.6377,162l-.5879-2.15039L227.46289,162h-.36035l-.75977-2.667h.36817l.59179,2.22363.61133-2.22363h.27637l.61133,2.22363.58789-2.22363h.37109L228.99805,162Z"/><path class="cls-3" d="M231.33008,162v-2.667h.332V162Z"/><path class="cls-3" d="M234.14648,162v-2.37109h-.84375v-.2959h2.02247v.2959h-.84668V162Z"/><path class="cls-3" d="M238.8584,162v-1.22363h-1.55957V162h-.332v-2.667h.332v1.14746h1.55957V159.333h.33105V162Z"/><path class="cls-3" d="M245.37891,160.669a1.33437,1.33437,0,0,1,1.37109-1.37989,1.18461,1.18461,0,0,1,1.01172.52832l-.27637.15528a.89642.89642,0,0,0-.73535-.3877,1.085,1.085,0,0,0,0,2.167.90657.90657,0,0,0,.73535-.38769l.28027.15234a1.20005,1.20005,0,0,1-1.01562.53125A1.33356,1.33356,0,0,1,245.37891,160.669Z"/><path class="cls-3" d="M251.28125,162l-.23633-.5957h-1.32715l-.23535.5957h-.37988l1.07519-2.667h.41211L251.66113,162Zm-.89941-2.32715-.56348,1.43945h1.13086Z"/><path class="cls-3" d="M254.75293,162l-.67481-1.05957H253.542V162h-.332v-2.667h1.07129a.78026.78026,0,0,1,.83984.80371.73888.73888,0,0,1-.69531.77539L255.14551,162Zm.02441-1.86328a.49693.49693,0,0,0-.53613-.50781H253.542v1.01953h.69922A.50208.50208,0,0,0,254.77734,160.13672Z"/><path class="cls-3" d="M256.84668,162v-2.667h1.74707v.2959h-1.415v.86035h1.3877v.2959h-1.3877v.91894h1.415V162Z"/></svg>