<svg xmlns="http://www.w3.org/2000/svg" id="Layer_1" data-name="Layer 1" viewBox="0 0 300 300"><defs><linearGradient id="linear-gradient" x1="-1203.295" x2="-1202.355" y1="263.545" y2="263.545" gradientTransform="scale(46.1 -46.1) rotate(-25 -1202.24 -2585.887)" gradientUnits="userSpaceOnUse"><stop offset="0" stop-color="#eb4c00"/><stop offset="1" stop-color="#f2a900"/></linearGradient><style>.cls-2{fill:#fff}</style></defs><path d="M0 0h300v300H0z" style="fill:#1e1e20"/><path d="M120 147.694v-9.76c0-1.439-.64-2.462-2.305-2.462a4.106 4.106 0 0 0-3.2 1.79v10.432H110.4v-9.76c0-1.439-.64-2.462-2.304-2.462a4.213 4.213 0 0 0-3.2 1.79v10.432h-4.064V132.24h4.064v1.985a6.922 6.922 0 0 1 5.056-2.368c2.272 0 3.744 1.055 4.287 2.784a6.62 6.62 0 0 1 5.312-2.784c2.848 0 4.544 1.503 4.544 4.671v11.167ZM137.408 147.694v-1.631a6.304 6.304 0 0 1-4.896 2.015 5.122 5.122 0 0 1-5.339-4.896q-.004-.112-.004-.223c0-3.648 2.88-4.992 5.343-4.992a6.31 6.31 0 0 1 4.896 1.888v-1.952c0-1.568-1.344-2.591-3.392-2.591a6.498 6.498 0 0 0-4.448 1.823l-1.6-2.848a9.98 9.98 0 0 1 6.752-2.431c3.552 0 6.784 1.408 6.784 5.855v9.983Zm0-3.712v-1.92a4.088 4.088 0 0 0-3.264-1.376c-1.6 0-2.912.865-2.912 2.336s1.312 2.304 2.912 2.304a4.064 4.064 0 0 0 3.264-1.344ZM145.504 147.694V132.24h4.064v2.08a6.778 6.778 0 0 1 4.928-2.464v3.968a5.25 5.25 0 0 0-4.928 1.664v10.207ZM156.033 139.951a7.857 7.857 0 0 1 7.607-8.099q.292-.01.584.003a7.193 7.193 0 0 1 6.112 2.785l-2.657 2.495a3.746 3.746 0 0 0-3.263-1.663 4.13 4.13 0 0 0-4.192 4.48c0 2.687 1.728 4.51 4.192 4.51a3.849 3.849 0 0 0 3.263-1.695l2.657 2.496a7.207 7.207 0 0 1-6.112 2.815 7.864 7.864 0 0 1-8.189-7.525q-.012-.301-.002-.602ZM182.271 147.694v-1.631a6.303 6.303 0 0 1-4.895 2.015 5.123 5.123 0 0 1-5.34-4.896q-.004-.112-.004-.223c0-3.648 2.88-4.992 5.344-4.992a6.309 6.309 0 0 1 4.895 1.887v-1.95c0-1.569-1.344-2.592-3.391-2.592a6.495 6.495 0 0 0-4.448 1.823l-1.6-2.848a9.983 9.983 0 0 1 6.752-2.432c3.551 0 6.783 1.409 6.783 5.856v9.983Zm0-3.712v-1.92a4.085 4.085 0 0 0-3.263-1.376c-1.6 0-2.913.865-2.913 2.336s1.313 2.304 2.913 2.304a4.062 4.062 0 0 0 3.263-1.344ZM200.991 147.694v-1.983a5.954 5.954 0 0 1-4.768 2.367c-3.87 0-6.846-2.943-6.846-8.127 0-5.023 2.91-8.096 6.846-8.096a5.86 5.86 0 0 1 4.768 2.369v-7.872h4.096v21.342Zm0-4.99v-5.473a4.404 4.404 0 0 0-3.487-1.76c-2.336 0-3.936 1.824-3.936 4.48 0 2.688 1.6 4.512 3.936 4.512a4.407 4.407 0 0 0 3.487-1.76ZM209.12 147.694V132.24h4.063v2.08a6.779 6.779 0 0 1 4.928-2.464v3.968a5.251 5.251 0 0 0-4.928 1.664v10.207ZM220.256 128.144a2.416 2.416 0 1 1 0 .036v-.036Zm.383 19.55V132.24h4.064v15.455ZM238.014 147.694v-1.631a6.303 6.303 0 0 1-4.895 2.015 5.123 5.123 0 0 1-5.34-4.896q-.004-.112-.004-.223c0-3.648 2.88-4.992 5.344-4.992a6.309 6.309 0 0 1 4.895 1.887v-1.95c0-1.569-1.343-2.592-3.391-2.592a6.495 6.495 0 0 0-4.448 1.823l-1.6-2.848a9.983 9.983 0 0 1 6.752-2.432c3.552 0 6.783 1.409 6.783 5.856v9.983Zm0-3.712v-1.92a4.085 4.085 0 0 0-3.263-1.376c-1.6 0-2.911.865-2.911 2.336s1.311 2.304 2.91 2.304a4.062 4.062 0 0 0 3.264-1.344ZM256.543 147.694v-9.343c0-2.144-1.12-2.88-2.848-2.88a4.521 4.521 0 0 0-3.52 1.792v10.431h-4.064V132.24h4.064v1.985a7.229 7.229 0 0 1 5.408-2.369c3.424 0 5.055 1.92 5.055 4.928v10.911ZM101.144 160.969v-2.667h1.072a.804.804 0 1 1 .062 1.607h-.802v1.06Zm1.563-1.864a.496.496 0 0 0-.482-.509.49.49 0 0 0-.05.002h-.7v1.015h.7a.496.496 0 0 0 .531-.458q.002-.025.001-.05ZM107.095 160.969l-.675-1.06h-.536v1.06h-.332v-2.667h1.072a.78.78 0 0 1 .84.803.74.74 0 0 1-.696.777l.72 1.087Zm.024-1.864a.497.497 0 0 0-.535-.507h-.7v1.02h.7a.502.502 0 0 0 .534-.468q.002-.022.001-.045ZM109.94 159.638a1.326 1.326 0 1 1 1.324 1.379 1.303 1.303 0 0 1-1.325-1.28q-.001-.05.002-.1Zm2.307 0a.99.99 0 1 0 .005.09q0-.046-.005-.09ZM115.169 160.969v-2.667h1.747v.296H115.5v.86h1.387v.295H115.5v1.216ZM119.433 160.969v-2.667h1.747v.296h-1.416v.86h1.388v.295h-1.388v.92h1.416v.296ZM123.608 160.593l.2-.256a1.1 1.1 0 0 0 .836.384c.475 0 .627-.256.627-.464 0-.688-1.579-.304-1.579-1.255 0-.44.392-.744.92-.744a1.255 1.255 0 0 1 .943.376l-.2.244a1.007 1.007 0 0 0-.771-.32c-.316 0-.548.172-.548.423 0 .6 1.579.256 1.579 1.252 0 .384-.264.784-.983.784a1.326 1.326 0 0 1-1.024-.424ZM128.012 160.593l.2-.256a1.098 1.098 0 0 0 .836.384c.475 0 .627-.256.627-.464 0-.688-1.579-.304-1.579-1.255 0-.44.392-.744.92-.744a1.254 1.254 0 0 1 .943.376l-.2.244a1.007 1.007 0 0 0-.771-.32c-.316 0-.548.172-.548.423 0 .6 1.579.256 1.579 1.252 0 .384-.264.784-.984.784a1.326 1.326 0 0 1-1.023-.424ZM132.576 160.969v-2.667h.331v2.667ZM135.484 159.638a1.326 1.326 0 1 1 1.323 1.379 1.303 1.303 0 0 1-1.325-1.28l.002-.1Zm2.307 0a.99.99 0 1 0 .004.09q0-.046-.004-.09ZM142.599 160.969l-1.555-2.127v2.127h-.332v-2.667h.34l1.535 2.083v-2.083h.332v2.667ZM147.507 160.969l-.236-.596h-1.327l-.236.596h-.38l1.076-2.667h.411l1.072 2.667Zm-.9-2.327-.563 1.44h1.131ZM150.253 160.969v-2.667h.33v2.37h1.24v.297ZM159.464 160.969l-.588-2.15-.587 2.15h-.36l-.76-2.667h.368l.592 2.223.611-2.223h.276l.612 2.223.588-2.223h.37l-.762 2.667ZM163.016 160.969v-2.667h1.747v.296h-1.415v.86h1.388v.295h-1.388v.92h1.415v.296ZM167.352 160.969v-2.667h1.188a.673.673 0 0 1 .748.68.607.607 0 0 1-.468.612.666.666 0 0 1 .52.655.695.695 0 0 1-.772.72Zm1.592-1.939a.42.42 0 0 0-.46-.432h-.8v.86h.8a.415.415 0 0 0 .46-.428Zm.052 1.183a.452.452 0 0 0-.492-.46h-.82v.92h.82a.44.44 0 0 0 .492-.46ZM171.929 160.969v-2.667h.912a1.334 1.334 0 0 1 .065 2.667h-.065Zm1.935-1.331a.976.976 0 0 0-1.023-1.04h-.58v2.075h.58a.98.98 0 0 0 1.023-1.035ZM176.788 160.969v-2.667h1.747v.296h-1.415v.86h1.388v.295h-1.388v.92h1.415v.296ZM181.924 160.969l-1.076-2.667h.38l.9 2.302.9-2.302h.379l-1.071 2.667ZM188.804 159.638a1.334 1.334 0 0 1 1.288-1.38h.084a1.185 1.185 0 0 1 1.011.528l-.276.155a.896.896 0 0 0-.735-.387 1.085 1.085 0 0 0 0 2.167.907.907 0 0 0 .735-.388l.28.152a1.2 1.2 0 0 1-1.015.532 1.334 1.334 0 0 1-1.372-1.295v-.084ZM195.22 160.969l-.675-1.06h-.537v1.06h-.332v-2.667h1.072a.78.78 0 0 1 .84.803.74.74 0 0 1-.696.777l.72 1.087Zm.024-1.864a.497.497 0 0 0-.536-.507h-.7v1.02h.7a.502.502 0 0 0 .535-.468v-.045ZM200.076 160.969l-.236-.596h-1.328l-.235.596h-.38l1.075-2.667h.413l1.07 2.667Zm-.9-2.327-.563 1.44h1.13ZM202.864 160.969v-2.667h1.747v.296h-1.415v.86h1.388v.295h-1.388v1.216ZM207.789 160.969v-2.371h-.844v-.296h2.022v.296h-.846v2.37ZM211.468 160.969v-2.667h1.748v.296H211.8v.86h1.387v.295H211.8v.92h1.415v.296ZM215.804 160.969v-2.667h.913a1.334 1.334 0 0 1 .065 2.667h-.065Zm1.936-1.331a.976.976 0 0 0-1.023-1.04h-.58v2.075h.58a.98.98 0 0 0 1.023-1.035ZM225.8 160.969l-.588-2.15-.587 2.15h-.36l-.76-2.667h.368l.592 2.223.61-2.223h.277l.612 2.223.588-2.223h.37l-.762 2.667ZM229.353 160.969v-2.667h.332v2.667ZM233.029 160.969v-2.371h-.844v-.296h2.023v.296h-.847v2.37ZM238.601 160.969v-1.224h-1.56v1.224h-.331v-2.667h.332v1.147h1.56v-1.147h.33v2.667ZM244.606 159.638a1.334 1.334 0 0 1 1.288-1.38h.083a1.185 1.185 0 0 1 1.012.528l-.276.155a.896.896 0 0 0-.736-.387 1.085 1.085 0 0 0 0 2.167.907.907 0 0 0 .736-.388l.28.152a1.201 1.201 0 0 1-1.016.532 1.334 1.334 0 0 1-1.371-1.295v-.084ZM251.369 160.969l-.236-.596h-1.328l-.235.596h-.38l1.075-2.667h.412l1.072 2.667Zm-.9-2.327-.563 1.44h1.13ZM46.787 129.4h37.187V162H46.787zM255.7 160.969l-.675-1.06h-.536v1.06h-.332v-2.667h1.071a.78.78 0 0 1 .84.803.74.74 0 0 1-.695.777l.72 1.087Zm.024-1.864a.497.497 0 0 0-.536-.507h-.699v1.02h.7a.502.502 0 0 0 .534-.468q.002-.022.001-.045ZM258.653 160.969v-2.667h1.747v.296h-1.415v.86h1.388v.295h-1.388v.92h1.415v.296Z" class="cls-2"/><path d="M43.848 124.2v43.2h43.2v-43.2Zm34.5 18.1 1.7 1.7 1.7 1.7-3.2 3.2-3.2 3.2-4.9 4.9-5 5-1.7-1.7-1.7-1.7 3.2-3.2 3.2-3.2-1.5-1.5-1.5-1.5-3.2 3.2-3.3 3.2-1.7-1.7-1.7-1.7 3.2-3.2 3.2-3.2-1.5-1.5-1.5-1.5-3.2 3.2-3.2 3.2-1.7-1.7-1.7-1.7 8.2-8.2 8.2-8.2 1.7 1.7 1.7 1.7-3.2 3.2-3.3 3.2 1.5 1.5 1.5 1.5 2.1-2.1 2.1-2.1 3.2 3.2 3.2 3.2m-2.2 2.5-1.5-1.5-1.5-1.5-1 1-1 1 1.5 1.5 1.5 1.5" style="fill:url(#linear-gradient)"/></svg>