<?xml version="1.0" encoding="utf-8"?>
<!-- Generator: Adobe Illustrator 26.0.1, SVG Export Plug-In . SVG Version: 6.00 Build 0)  -->
<svg version="1.1" id="Layer_1" xmlns="http://www.w3.org/2000/svg" xmlns:xlink="http://www.w3.org/1999/xlink" x="0px" y="0px"
	 viewBox="0 0 300 300" style="enable-background:new 0 0 300 300;" xml:space="preserve">
<style type="text/css">
	.st0{fill:#FEF2E5;}
	.st1{fill:#361C00;}
	.st2{fill:url(#SVGID_1_);}
</style>
<rect y="1" class="st0" width="300" height="300"/>
<g id="_x31_7c5c226-86e3-46dc-83a4-124066d1baf3" transform="matrix(2.12575364112854,0,0,2.12575364112854,97.14600411772206,122.8451678145139)">
	<path class="st1" d="M1.3,13.1L1.3,13.1c-0.1,0-0.2,0-0.2-0.1l0,0l0,0c-0.1-0.1-0.1-0.1-0.1-0.2l0,0V6.1l0,0C0.9,6,1,6,1,5.9l0,0
		l0,0c0.1-0.1,0.1-0.1,0.2-0.1l0,0h1.1l0,0c0.1,0,0.2,0,0.2,0.1l0,0l0,0C2.7,6,2.7,6,2.7,6.1l0,0v0.5l0,0c0.5-0.6,1.2-0.9,2-0.9l0,0
		l0,0c1,0,1.8,0.4,2.2,1.2l0,0l0,0C7.1,6.5,7.4,6.2,7.8,6l0,0l0,0c0.4-0.2,0.9-0.3,1.3-0.3l0,0l0,0c0.8,0,1.4,0.3,1.9,0.8l0,0l0,0
		c0.5,0.5,0.7,1.3,0.7,2.3l0,0v4l0,0c0,0.1,0,0.2-0.1,0.2l0,0l0,0c-0.1,0.1-0.1,0.1-0.2,0.1l0,0h-1.2l0,0c-0.1,0-0.2,0-0.2-0.1l0,0
		l0,0c-0.1-0.1-0.1-0.1-0.1-0.2l0,0V8.8l0,0c0-0.6-0.1-1-0.4-1.3l0,0l0,0C9.3,7.3,9,7.2,8.6,7.2l0,0l0,0c-0.4,0-0.7,0.1-0.9,0.4l0,0
		l0,0C7.4,7.8,7.3,8.3,7.3,8.8l0,0v3.9l0,0c0,0.1,0,0.2-0.1,0.2l0,0l0,0c-0.1,0.1-0.1,0.1-0.2,0.1l0,0H5.8l0,0c-0.1,0-0.2,0-0.2-0.1
		l0,0l0,0c-0.1-0.1-0.1-0.1-0.1-0.2l0,0V8.8l0,0c0-0.6-0.1-1-0.4-1.3l0,0l0,0c-0.3-0.3-0.6-0.4-1-0.4l0,0l0,0
		c-0.4,0-0.7,0.1-0.9,0.4l0,0l0,0C2.9,7.8,2.8,8.3,2.8,8.8l0,0v3.9l0,0c0,0.1,0,0.2-0.1,0.2l0,0l0,0c-0.1,0.1-0.1,0.1-0.2,0.1l0,0
		H1.3z M15.7,13.2L15.7,13.2c-0.5,0-0.9-0.1-1.3-0.3l0,0l0,0c-0.4-0.2-0.7-0.4-0.9-0.8l0,0l0,0c-0.2-0.3-0.3-0.7-0.3-1.1l0,0l0,0
		c0-0.6,0.3-1.1,0.8-1.5l0,0l0,0c0.5-0.4,1.2-0.7,2.1-0.8l0,0l1.9-0.3V8.2l0,0c0-0.4-0.1-0.7-0.3-0.9l0,0l0,0
		c-0.2-0.2-0.5-0.3-1-0.3l0,0l0,0C16.3,7,16,7,15.9,7.1l0,0l0,0c-0.2,0.1-0.3,0.2-0.4,0.3l0,0l0,0c-0.1,0.1-0.2,0.2-0.2,0.2l0,0l0,0
		c0,0.1-0.1,0.2-0.2,0.2l0,0h-1.1l0,0c-0.1,0-0.1,0-0.2-0.1l0,0l0,0c-0.1-0.1-0.1-0.1-0.1-0.2l0,0l0,0c0-0.2,0.1-0.5,0.3-0.8l0,0
		l0,0c0.2-0.3,0.6-0.6,1-0.8l0,0l0,0c0.5-0.2,1-0.3,1.7-0.3l0,0l0,0c1.1,0,1.9,0.2,2.4,0.7l0,0l0,0c0.5,0.5,0.8,1.1,0.8,1.9l0,0v4.4
		l0,0c0,0.1,0,0.2-0.1,0.2l0,0l0,0c-0.1,0.1-0.1,0.1-0.2,0.1l0,0h-1.2l0,0c-0.1,0-0.2,0-0.2-0.1l0,0l0,0c-0.1-0.1-0.1-0.1-0.1-0.2
		l0,0v-0.5l0,0c-0.2,0.3-0.5,0.5-0.9,0.7l0,0l0,0C16.7,13.1,16.2,13.2,15.7,13.2L15.7,13.2z M16.2,11.9L16.2,11.9
		c0.5,0,0.9-0.2,1.3-0.5l0,0l0,0c0.3-0.3,0.5-0.8,0.5-1.4l0,0V9.6l-1.4,0.2l0,0c-1.1,0.2-1.6,0.5-1.6,1.1l0,0l0,0
		c0,0.3,0.1,0.5,0.4,0.7l0,0l0,0C15.5,11.8,15.8,11.9,16.2,11.9L16.2,11.9z M21.9,13.1L21.9,13.1c-0.1,0-0.2,0-0.2-0.1l0,0l0,0
		c-0.1-0.1-0.1-0.1-0.1-0.2l0,0V6.2l0,0c0-0.1,0-0.2,0.1-0.2l0,0l0,0c0.1-0.1,0.1-0.1,0.2-0.1l0,0h1.1l0,0c0.1,0,0.2,0,0.2,0.1l0,0
		l0,0c0.1,0.1,0.1,0.2,0.1,0.2l0,0v0.6l0,0c0.5-0.6,1.1-0.9,2-0.9l0,0H26l0,0c0.1,0,0.2,0,0.2,0.1l0,0l0,0C26.3,6,26.3,6,26.3,6.1
		l0,0v1l0,0c0,0.1,0,0.2-0.1,0.2l0,0l0,0c-0.1,0.1-0.1,0.1-0.2,0.1l0,0h-1.1l0,0c-0.4,0-0.8,0.1-1,0.4l0,0l0,0
		c-0.3,0.3-0.4,0.6-0.4,1l0,0v3.8l0,0c0,0.1,0,0.2-0.1,0.2l0,0l0,0c-0.1,0.1-0.1,0.1-0.2,0.1l0,0H21.9z M30.6,13.2L30.6,13.2
		c-1,0-1.8-0.3-2.5-0.8l0,0l0,0c-0.6-0.6-0.9-1.4-1-2.4l0,0l0-0.6l0-0.6l0,0c0-1,0.4-1.8,1-2.4l0,0l0,0c0.6-0.6,1.4-0.8,2.5-0.8l0,0
		l0,0c0.7,0,1.4,0.1,1.9,0.4l0,0l0,0c0.5,0.3,0.9,0.6,1.1,1l0,0l0,0C33.8,7.4,34,7.8,34,8.1l0,0l0,0c0,0.1,0,0.2-0.1,0.2l0,0l0,0
		c-0.1,0.1-0.1,0.1-0.2,0.1l0,0h-1.2l0,0c-0.1,0-0.2,0-0.2-0.1l0,0l0,0c0,0-0.1-0.1-0.1-0.2l0,0l0,0c-0.1-0.4-0.3-0.6-0.6-0.8l0,0
		l0,0c-0.2-0.2-0.5-0.2-0.9-0.2l0,0l0,0c-0.5,0-0.9,0.1-1.1,0.4l0,0l0,0c-0.3,0.3-0.4,0.8-0.4,1.4l0,0l0,0.5l0,0.5l0,0
		c0.1,1.2,0.6,1.8,1.5,1.8l0,0l0,0c0.4,0,0.7-0.1,0.9-0.2l0,0l0,0c0.2-0.2,0.4-0.4,0.6-0.8l0,0l0,0c0-0.1,0.1-0.2,0.1-0.2l0,0l0,0
		c0.1,0,0.1-0.1,0.2-0.1l0,0h1.2l0,0c0.1,0,0.2,0,0.2,0.1l0,0l0,0c0.1,0.1,0.1,0.1,0.1,0.2l0,0l0,0c0,0.3-0.2,0.7-0.4,1.1l0,0l0,0
		c-0.2,0.4-0.6,0.7-1.1,1l0,0l0,0C32,13.1,31.3,13.2,30.6,13.2L30.6,13.2z M37.6,13.2L37.6,13.2c-0.5,0-0.9-0.1-1.3-0.3l0,0l0,0
		c-0.4-0.2-0.7-0.4-0.9-0.8l0,0l0,0c-0.2-0.3-0.3-0.7-0.3-1.1l0,0l0,0c0-0.6,0.3-1.1,0.8-1.5l0,0l0,0c0.5-0.4,1.2-0.7,2.1-0.8l0,0
		l1.9-0.3V8.2l0,0c0-0.4-0.1-0.7-0.3-0.9l0,0l0,0c-0.2-0.2-0.5-0.3-1-0.3l0,0l0,0c-0.3,0-0.6,0.1-0.8,0.2l0,0l0,0
		c-0.2,0.1-0.3,0.2-0.5,0.3l0,0l0,0c-0.1,0.1-0.2,0.2-0.2,0.2l0,0l0,0c0,0.1-0.1,0.2-0.2,0.2l0,0h-1.1l0,0c-0.1,0-0.2,0-0.2-0.1l0,0
		l0,0c-0.1-0.1-0.1-0.1-0.1-0.2l0,0l0,0c0-0.2,0.1-0.5,0.3-0.8l0,0l0,0c0.2-0.3,0.6-0.6,1-0.8l0,0l0,0c0.5-0.2,1-0.3,1.7-0.3l0,0
		l0,0c1.1,0,1.9,0.2,2.4,0.7l0,0l0,0c0.5,0.5,0.8,1.1,0.8,1.9l0,0v4.4l0,0c0,0.1,0,0.2-0.1,0.2l0,0l0,0c-0.1,0.1-0.1,0.1-0.2,0.1
		l0,0h-1.2l0,0c-0.1,0-0.2,0-0.2-0.1l0,0l0,0c-0.1-0.1-0.1-0.1-0.1-0.2l0,0v-0.5l0,0c-0.2,0.3-0.5,0.5-0.9,0.7l0,0l0,0
		C38.6,13.1,38.1,13.2,37.6,13.2L37.6,13.2z M38,11.9L38,11.9c0.5,0,0.9-0.2,1.3-0.5l0,0l0,0c0.3-0.3,0.5-0.8,0.5-1.4l0,0V9.6
		l-1.4,0.2l0,0c-1.1,0.2-1.6,0.5-1.6,1.1l0,0l0,0c0,0.3,0.1,0.5,0.4,0.7l0,0l0,0C37.4,11.8,37.7,11.9,38,11.9L38,11.9z M46.2,13.2
		L46.2,13.2c-0.9,0-1.7-0.3-2.2-0.9l0,0l0,0c-0.5-0.6-0.8-1.4-0.8-2.4l0,0l0-0.5l0-0.5l0,0c0-1,0.3-1.8,0.8-2.4l0,0l0,0
		c0.5-0.6,1.2-0.9,2.2-0.9l0,0l0,0c0.9,0,1.6,0.3,2.1,0.9l0,0V3.5l0,0c0-0.1,0-0.2,0.1-0.2l0,0l0,0c0.1-0.1,0.1-0.1,0.2-0.1l0,0h1.2
		l0,0c0.1,0,0.2,0,0.2,0.1l0,0l0,0c0.1,0.1,0.1,0.1,0.1,0.2l0,0v9.3l0,0c0,0.1,0,0.2-0.1,0.2l0,0l0,0c-0.1,0.1-0.1,0.1-0.2,0.1l0,0
		h-1.1l0,0c-0.1,0-0.2,0-0.2-0.1l0,0l0,0c-0.1-0.1-0.1-0.1-0.1-0.2l0,0v-0.5l0,0C47.9,12.9,47.1,13.2,46.2,13.2L46.2,13.2z
		 M46.7,11.7L46.7,11.7c0.5,0,0.9-0.2,1.2-0.5l0,0l0,0c0.3-0.3,0.4-0.8,0.4-1.3l0,0l0,0c0-0.1,0-0.3,0-0.5l0,0l0,0
		c0-0.3,0-0.4,0-0.6l0,0l0,0c0-0.5-0.2-0.9-0.4-1.2l0,0l0,0c-0.3-0.3-0.7-0.5-1.2-0.5l0,0l0,0c-1,0-1.5,0.6-1.6,1.8l0,0l0,0.4l0,0.4
		l0,0C45.2,11.1,45.7,11.7,46.7,11.7L46.7,11.7z M52.4,13.1L52.4,13.1c-0.1,0-0.2,0-0.2-0.1l0,0l0,0c-0.1-0.1-0.1-0.1-0.1-0.2l0,0
		V6.2l0,0c0-0.1,0-0.2,0.1-0.2l0,0l0,0c0.1-0.1,0.1-0.1,0.2-0.1l0,0h1.2l0,0c0.1,0,0.2,0,0.2,0.1l0,0l0,0c0.1,0.1,0.1,0.2,0.1,0.2
		l0,0v0.6l0,0c0.5-0.6,1.1-0.9,2-0.9l0,0h0.6l0,0c0.1,0,0.2,0,0.2,0.1l0,0l0,0C56.8,6,56.8,6,56.8,6.1l0,0v1l0,0
		c0,0.1,0,0.2-0.1,0.2l0,0l0,0c-0.1,0.1-0.1,0.1-0.2,0.1l0,0h-1.1l0,0c-0.4,0-0.8,0.1-1,0.4l0,0l0,0c-0.3,0.3-0.4,0.6-0.4,1l0,0v3.8
		l0,0c0,0.1,0,0.2-0.1,0.2l0,0l0,0c-0.1,0.1-0.1,0.1-0.2,0.1l0,0H52.4z M58.2,4.6L58.2,4.6c-0.1,0-0.2,0-0.2-0.1l0,0l0,0
		c-0.1-0.1-0.1-0.1-0.1-0.2l0,0v-1l0,0c0-0.1,0-0.2,0.1-0.2l0,0l0,0c0.1-0.1,0.1-0.1,0.2-0.1l0,0h1.3l0,0c0.1,0,0.2,0,0.2,0.1l0,0
		l0,0c0.1,0.1,0.1,0.1,0.1,0.2l0,0v1l0,0c0,0.1,0,0.2-0.1,0.2l0,0l0,0c-0.1,0.1-0.1,0.1-0.2,0.1l0,0H58.2z M58.2,13.1L58.2,13.1
		c-0.1,0-0.2,0-0.2-0.1l0,0l0,0c-0.1-0.1-0.1-0.1-0.1-0.2l0,0V6.1l0,0C57.9,6,58,6,58,5.9l0,0l0,0c0.1-0.1,0.1-0.1,0.2-0.1l0,0h1.2
		l0,0c0.1,0,0.2,0,0.2,0.1l0,0l0,0c0.1,0.1,0.1,0.1,0.1,0.2l0,0v6.6l0,0c0,0.1,0,0.2-0.1,0.2l0,0l0,0c-0.1,0.1-0.1,0.1-0.2,0.1l0,0
		H58.2z M63.7,13.2L63.7,13.2c-0.5,0-0.9-0.1-1.3-0.3l0,0l0,0c-0.4-0.2-0.7-0.4-0.9-0.8l0,0l0,0c-0.2-0.3-0.3-0.7-0.3-1.1l0,0l0,0
		c0-0.6,0.3-1.1,0.8-1.5l0,0l0,0c0.5-0.4,1.2-0.7,2.1-0.8l0,0l1.9-0.3V8.2l0,0c0-0.4-0.1-0.7-0.3-0.9l0,0l0,0
		c-0.2-0.2-0.5-0.3-1-0.3l0,0l0,0c-0.3,0-0.6,0.1-0.8,0.2l0,0l0,0c-0.2,0.1-0.3,0.2-0.4,0.3l0,0l0,0c-0.1,0.1-0.2,0.2-0.2,0.2l0,0
		l0,0c0,0.1-0.1,0.2-0.2,0.2l0,0h-1.1l0,0c-0.1,0-0.2,0-0.2-0.1l0,0l0,0c-0.1-0.1-0.1-0.1-0.1-0.2l0,0l0,0c0-0.2,0.1-0.5,0.3-0.8
		l0,0l0,0c0.2-0.3,0.6-0.6,1-0.8l0,0l0,0c0.5-0.2,1-0.3,1.7-0.3l0,0l0,0c1.1,0,1.9,0.2,2.4,0.7l0,0l0,0c0.5,0.5,0.8,1.1,0.8,1.9l0,0
		v4.4l0,0c0,0.1,0,0.2-0.1,0.2l0,0l0,0c-0.1,0.1-0.1,0.1-0.2,0.1l0,0h-1.2l0,0c-0.1,0-0.2,0-0.2-0.1l0,0l0,0
		C66,12.9,66,12.8,66,12.7l0,0v-0.5l0,0c-0.2,0.3-0.5,0.5-0.9,0.7l0,0l0,0C64.8,13.1,64.3,13.2,63.7,13.2L63.7,13.2z M64.2,11.9
		L64.2,11.9c0.5,0,0.9-0.2,1.3-0.5l0,0l0,0C65.8,11,66,10.6,66,9.9l0,0V9.6l-1.4,0.2l0,0C63.5,10,63,10.4,63,10.9l0,0l0,0
		c0,0.3,0.1,0.5,0.4,0.7l0,0l0,0C63.6,11.8,63.9,11.9,64.2,11.9L64.2,11.9z M70,13.1L70,13.1c-0.1,0-0.2,0-0.2-0.1l0,0l0,0
		c-0.1-0.1-0.1-0.1-0.1-0.2l0,0V6.1l0,0c0-0.1,0-0.2,0.1-0.2l0,0l0,0c0.1-0.1,0.1-0.1,0.2-0.1l0,0h1.2l0,0c0.1,0,0.2,0,0.2,0.1l0,0
		l0,0C71.4,6,71.5,6,71.5,6.1l0,0v0.6l0,0c0.6-0.7,1.3-1,2.3-1l0,0l0,0c0.9,0,1.5,0.3,2,0.8l0,0l0,0c0.5,0.6,0.8,1.3,0.8,2.3l0,0
		v3.9l0,0c0,0.1,0,0.2-0.1,0.2l0,0l0,0c-0.1,0.1-0.1,0.1-0.2,0.1l0,0H75l0,0c-0.1,0-0.2,0-0.2-0.1l0,0l0,0c-0.1-0.1-0.1-0.1-0.1-0.2
		l0,0V8.9l0,0c0-0.5-0.1-1-0.4-1.3l0,0l0,0c-0.3-0.3-0.6-0.5-1.1-0.5l0,0l0,0c-0.5,0-0.9,0.2-1.2,0.5l0,0l0,0
		c-0.3,0.3-0.4,0.7-0.4,1.3l0,0v3.9l0,0c0,0.1,0,0.2-0.1,0.2l0,0l0,0c-0.1,0.1-0.1,0.1-0.2,0.1l0,0H70z"/>
</g>
<g id="fd4ff8e4-a136-4c90-8ca4-f3bc5362b13a" transform="matrix(0.2585750222206116,0,0,0.2585750222206116,98.8095077890368,160.4258812427382)">
	<path class="st1" d="M2.2,8.2h3.1c2,0,3.2-1.2,3.2-3c0-1.8-1.2-3-3.2-3H1.1v9.3h1.1V8.2z M5.2,3.2c1.5,0,2.2,0.8,2.2,2
		c0,1.3-0.8,2-2.2,2H2.2v-4H5.2z M18,7.9h3.2l2.2,3.6h1.2l-2.4-3.7c1-0.2,2.2-0.8,2.2-2.6c0-1.8-1.2-2.9-3.1-2.9h-4.4v9.3h1V7.9z
		 M18,3.2h3.3c1.3,0,2.2,0.7,2.2,1.9c0,1.4-1.3,1.8-2.3,1.8H18V3.2z M37.4,2.1c-2.8,0-4.7,2.1-4.7,4.8c0,2.6,1.9,4.7,4.7,4.7
		c2.8,0,4.7-2.1,4.7-4.7C42.1,4.2,40.2,2.1,37.4,2.1z M37.4,10.6c-2.3,0-3.7-1.6-3.7-3.7c0-2.1,1.4-3.7,3.7-3.7
		c2.2,0,3.7,1.6,3.7,3.7C41.1,8.9,39.7,10.6,37.4,10.6z M57.5,3.2v-1h-6.7v9.3h1v-4h5v-1h-5V3.2H57.5z M72.8,3.2v-1H66v9.3h6.8v-1
		H67V7.4h5.2v-1H67V3.2H72.8z M82,4.7c0-0.6,0.4-1.6,2.5-1.6c1.7,0,2.5,0.7,2.6,1.7h1.1c-0.1-1.4-1.2-2.7-3.7-2.7
		c-2.3,0-3.5,1.1-3.5,2.6c0,3.2,6.3,2,6.3,4.3c0,1.1-1,1.6-2.6,1.6c-1.6,0-2.9-0.6-3-1.9h-1.1c0.1,1.7,1.3,2.9,4,2.9
		c2.3,0,3.7-0.9,3.7-2.7C88.3,5.7,82,6.8,82,4.7z M97.6,4.7c0-0.6,0.4-1.6,2.5-1.6c1.7,0,2.5,0.7,2.6,1.7h1.1
		c-0.1-1.4-1.2-2.7-3.7-2.7c-2.3,0-3.5,1.1-3.5,2.6c0,3.2,6.3,2,6.3,4.3c0,1.1-1,1.6-2.6,1.6c-1.6,0-2.9-0.6-3-1.9h-1.1
		c0.1,1.7,1.3,2.9,4,2.9c2.3,0,3.7-0.9,3.7-2.7C104,5.7,97.6,6.8,97.6,4.7z M113.6,2.2h-1.1v9.3h1.1V2.2z M127,2.1
		c-2.8,0-4.7,2.1-4.7,4.8c0,2.6,1.9,4.7,4.7,4.7c2.8,0,4.7-2.1,4.7-4.7C131.7,4.2,129.8,2.1,127,2.1z M127,10.6
		c-2.3,0-3.7-1.6-3.7-3.7c0-2.1,1.4-3.7,3.7-3.7c2.2,0,3.7,1.6,3.7,3.7C130.7,8.9,129.3,10.6,127,10.6z M147.3,2.2V10l-5.7-7.8h-1.2
		v9.3h1.1V3.7l5.7,7.8h1.2V2.2H147.3z M161.8,2.2h-1.3l-3.9,9.3h1.2l1.1-2.7h4.6l1.1,2.7h1.2L161.8,2.2z M159.3,7.8l1.9-4.5l1.9,4.5
		H159.3z M173.9,2.2v9.3h6.1v-1H175V2.2H173.9z M203.9,3.7l2.5,7.8h1.2l2.9-9.3h-1.1L207,10l-2.5-7.8h-1.2l-2.5,7.8l-2.4-7.8h-1.1
		l2.9,9.3h1.2L203.9,3.7z M225.6,3.2v-1h-6.8v9.3h6.8v-1h-5.8V7.4h5.1v-1h-5.1V3.2H225.6z M240.1,6.8c0.7-0.3,1.2-0.9,1.2-2.1
		c0-1.1-0.7-2.4-2.9-2.4h-4.2v9.3h4.4c2.1,0,3.2-1,3.2-2.4C241.9,7.7,240.9,7,240.1,6.8z M235.3,3.2h3.2c1.3,0,1.8,0.8,1.8,1.5
		c0,1.1-0.9,1.6-1.9,1.6h-3.1V3.2z M238.8,10.5h-3.5V7.3h3.4c1.5,0,2.1,0.8,2.1,1.7C240.8,9.9,240.1,10.5,238.8,10.5z M264.5,2.2
		h-3.9v9.3h3.9c2.2,0,4.2-1.7,4.2-4.6C268.7,4,266.7,2.2,264.5,2.2z M264.4,10.5h-2.8V3.2h2.8c2,0,3.2,1.7,3.2,3.6
		C267.7,8.8,266.4,10.5,264.4,10.5z M284.2,3.2v-1h-6.8v9.3h6.8v-1h-5.8V7.4h5.1v-1h-5.1V3.2H284.2z M293.4,4.7
		c0-0.6,0.4-1.6,2.5-1.6c1.7,0,2.5,0.7,2.6,1.7h1.1c-0.1-1.4-1.2-2.7-3.7-2.7c-2.3,0-3.5,1.1-3.5,2.6c0,3.2,6.3,2,6.3,4.3
		c0,1.1-1,1.6-2.6,1.6c-1.6,0-2.9-0.6-3-1.9h-1.1c0.1,1.7,1.3,2.9,4,2.9c2.3,0,3.7-0.9,3.7-2.7C299.8,5.7,293.4,6.8,293.4,4.7z
		 M309.5,2.2h-1v9.3h1V2.2z M322.7,2.1c-2.8,0-4.6,2.1-4.6,4.8c0,2.6,1.7,4.7,4.5,4.7c1.7,0,2.8-0.9,3.4-1.8v1.6h1V6.6h-4.4v0.9h3.4
		c0,1.9-1.6,3.1-3.3,3.1c-2.3,0-3.6-1.6-3.6-3.7c0-2.1,1.3-3.7,3.6-3.7c1.4,0,2.4,0.6,3,1.6h1.1C326.2,3.2,324.7,2.1,322.7,2.1z
		 M342.8,2.2V10l-5.7-7.8h-1.2v9.3h1V3.7l5.7,7.8h1.2V2.2H342.8z M352.9,10.4 M353.1,13.3 M377.2,10.6c-2.3,0-3.5-1.6-3.5-3.7
		c0-2.1,1.3-3.7,3.5-3.7c1.5,0,2.5,0.7,3,1.9h1.1c-0.6-1.7-2.1-2.9-4.2-2.9c-2.8,0-4.5,2.1-4.5,4.8c0,2.6,1.7,4.7,4.5,4.7
		c2.1,0,3.6-1.2,4.2-2.9h-1.1C379.7,9.8,378.7,10.6,377.2,10.6z M390.9,7.9h3.2l2.2,3.6h1.2l-2.4-3.7c1-0.2,2.2-0.8,2.2-2.6
		c0-1.8-1.2-2.9-3.1-2.9h-4.4v9.3h1.1V7.9z M390.9,3.2h3.3c1.3,0,2.2,0.7,2.2,1.9c0,1.4-1.3,1.8-2.2,1.8h-3.2V3.2z M410.4,2.2H409
		l-3.9,9.3h1.2l1.1-2.7h4.6l1.1,2.7h1.2L410.4,2.2z M407.8,7.8l1.9-4.5l1.9,4.5H407.8z M429.2,3.2v-1h-6.7v9.3h1.1v-4h5v-1h-5V3.2
		H429.2z M444.2,2.2h-7.5v1h3.2v8.3h1V3.2h3.2V2.2z M459.4,3.2v-1h-6.8v9.3h6.8v-1h-5.8V7.4h5.1v-1h-5.1V3.2H459.4z M472,2.2h-3.9
		v9.3h3.9c2.2,0,4.3-1.7,4.3-4.6C476.2,4,474.2,2.2,472,2.2z M471.9,10.5h-2.8V3.2h2.8c2,0,3.2,1.7,3.2,3.6
		C475.2,8.8,473.9,10.5,471.9,10.5z M500.5,3.7l2.5,7.8h1.2l2.9-9.3h-1.1l-2.4,7.8l-2.5-7.8h-1.2l-2.5,7.8L495,2.2h-1.1l2.9,9.3h1.2
		L500.5,3.7z M516.4,2.2h-1v9.3h1V2.2z M532.2,2.2h-7.5v1h3.2v8.3h1.1V3.2h3.2V2.2z M547,2.2v4.1h-5.4V2.2h-1v9.3h1V7.4h5.4v4.1h1.1
		V2.2H547z M571.2,10.6c-2.2,0-3.5-1.6-3.5-3.7c0-2.1,1.3-3.7,3.5-3.7c1.5,0,2.5,0.7,3,1.9h1.1c-0.6-1.7-2.1-2.9-4.2-2.9
		c-2.8,0-4.5,2.1-4.5,4.8c0,2.6,1.7,4.7,4.5,4.7c2.1,0,3.6-1.2,4.2-2.9h-1.1C573.8,9.8,572.8,10.6,571.2,10.6z M588.1,2.2h-1.3
		l-3.9,9.3h1.2l1.1-2.7h4.6l1.1,2.7h1.2L588.1,2.2z M585.5,7.8l1.9-4.5l1.9,4.5H585.5z M601.2,7.9h3.2l2.2,3.6h1.2l-2.4-3.7
		c1-0.2,2.2-0.8,2.2-2.6c0-1.8-1.2-2.9-3.1-2.9h-4.4v9.3h1V7.9z M601.2,3.2h3.3c1.3,0,2.2,0.7,2.2,1.9c0,1.4-1.3,1.8-2.2,1.8h-3.2
		V3.2z M623.4,3.2v-1h-6.8v9.3h6.8v-1h-5.8V7.4h5.2v-1h-5.2V3.2H623.4z"/>
</g>
<g>
	
		<linearGradient id="SVGID_1_" gradientUnits="userSpaceOnUse" x1="-782.4324" y1="262.9661" x2="-781.4962" y2="262.9661" gradientTransform="matrix(41.7823 19.4834 -19.4834 41.7823 37853.8633 4390.7349)">
		<stop  offset="0" style="stop-color:#EB4C00"/>
		<stop  offset="1" style="stop-color:#F2A900"/>
	</linearGradient>
	<path class="st2" d="M43,124.2v43.2h43.2v-43.2C86.1,124.2,43,124.2,43,124.2z M77.5,142.3l1.7,1.7l1.7,1.7l-3.2,3.2l-3.2,3.2
		c-1.1,1.1-3,3-4.9,4.9c-1.9,1.9-3.9,3.9-5,5l-1.7-1.7l-1.7-1.7l3.2-3.2l3.2-3.2l-1.5-1.5l-1.5-1.5l-3.2,3.2l-3.3,3.2l-1.7-1.7
		l-1.7-1.7l3.2-3.2l3.2-3.2l-1.5-1.5l-1.5-1.5l-3.2,3.2l-3.2,3.2l-1.7-1.7l-1.7-1.7c2.4-2.4,5.3-5.3,8.2-8.2
		c2.9-2.9,5.8-5.8,8.2-8.2l1.7,1.7l1.7,1.7l-3.2,3.2l-3.3,3.2l1.5,1.5l1.5,1.5l2.1-2.1l2.1-2.1l3.2,3.2l3.2,3.2 M73,146.9l-1.5-1.5
		l-1.5-1.5l-1,1l-1,1l1.5,1.5l1.5,1.5"/>
</g>
</svg>
