<svg id="Layer_1" data-name="Layer 1" xmlns="http://www.w3.org/2000/svg" xmlns:xlink="http://www.w3.org/1999/xlink" viewBox="0 0 300 300"><defs><style>.cls-1{fill:#fef2e5;}.cls-2{fill:url(#linear-gradient);}.cls-3{fill:#361c00;}</style><linearGradient id="linear-gradient" x1="-1224.48878" y1="159.68166" x2="-1223.54884" y2="159.68166" gradientTransform="translate(54312.07872 17316.31944) rotate(24.99737) scale(46.09814)" gradientUnits="userSpaceOnUse"><stop offset="0" stop-color="#eb4c00"/><stop offset="1" stop-color="#f2a900"/></linearGradient></defs><rect class="cls-1" width="300" height="300"/><path class="cls-2" d="M44.38,124.2v43.2h43.2V124.2Zm34.5,18.1,1.7,1.7,1.7,1.7-3.2,3.2-3.2,3.2-4.9,4.9-5,5-1.7-1.7-1.7-1.7,3.2-3.2,3.2-3.2-1.5-1.5-1.5-1.5-3.2,3.2-3.3,3.2-1.7-1.7-1.7-1.7,3.2-3.2,3.2-3.2-1.5-1.5-1.5-1.5-3.2,3.2-3.2,3.2-1.7-1.7-1.7-1.7,8.2-8.2,8.2-8.2,1.7,1.7,1.7,1.7-3.2,3.2-3.3,3.2,1.5,1.5,1.5,1.5,2.1-2.1,2.1-2.1,3.2,3.2,3.2,3.2m-2.2,2.5-1.5-1.5-1.5-1.5-1,1-1,1,1.5,1.5,1.5,1.5"/><path class="cls-3" d="M145.14,151.93"/><path class="cls-3" d="M145.14,151.93"/><path class="cls-3" d="M146.09,152"/><path class="cls-3" d="M147.22,151.74"/><path class="cls-3" d="M145.76,152.07"/><path class="cls-3" d="M149.29,151.74"/><path class="cls-3" d="M149.06,151.8"/><path class="cls-3" d="M151.63,146.26"/><path class="cls-3" d="M151.8,143.2"/><path class="cls-3" d="M151.8,143.2"/><path class="cls-3" d="M151.7,141.29"/><path class="cls-3" d="M141.71,150.91"/><path class="cls-3" d="M137.46,151.84"/><path class="cls-3" d="M139.63,155.86"/><path class="cls-3" d="M139.53,152.73"/><path class="cls-3" d="M135.74,154.51"/><path class="cls-3" d="M106.2,152.36"/><path class="cls-3" d="M106.15,151.47"/><path class="cls-3" d="M105.9,152.26"/><path class="cls-3" d="M107.53,152.83"/><path class="cls-3" d="M106.62,153.28"/><path class="cls-3" d="M97.86,139.85"/><path class="cls-3" d="M104.66,134.51"/><path class="cls-3" d="M97.86,137.06"/><path class="cls-3" d="M110.05,151.35"/><path class="cls-3" d="M114.5,151.05"/><path class="cls-3" d="M115.84,140.82"/><path class="cls-3" d="M123.54,153.19"/><path class="cls-3" d="M124.7,152.1"/><path class="cls-3" d="M147.38,151.51"/><path class="cls-3" d="M154.73,144.48"/><path class="cls-3" d="M154.17,142.74"/><path class="cls-3" d="M154.04,144.42"/><path class="cls-3" d="M168.48,142.87"/><path class="cls-3" d="M169.86,149.16"/><path class="cls-3" d="M171.22,145.47"/><path class="cls-3" d="M170.16,149.36"/><path class="cls-3" d="M171.38,147.58"/><path class="cls-3" d="M171.51,146.23"/><path class="cls-3" d="M171.97,147.12"/><path class="cls-3" d="M170.65,141.78"/><path class="cls-3" d="M171.74,141.81"/><path class="cls-3" d="M173.98,141.09"/><path class="cls-3" d="M177.45,140.59"/><path class="cls-3" d="M178.57,139.74"/><path class="cls-3" d="M183.31,151.57"/><path class="cls-3" d="M184.04,151.7"/><path class="cls-3" d="M187.63,151.34"/><path class="cls-3" d="M174.31,140.3"/><path class="cls-3" d="M174.12,140.63"/><path class="cls-3" d="M172.76,153.15"/><path class="cls-3" d="M186.08,153.15"/><path class="cls-3" d="M204.94,151.74"/><path class="cls-3" d="M202.53,151.6"/><path class="cls-3" d="M206.79,131.49"/><path class="cls-3" d="M205.63,137"/><path class="cls-3" d="M206.38,131"/><path class="cls-3" d="M206.38,130.77"/><path class="cls-3" d="M206.23,130.64"/><path class="cls-3" d="M210.81,151.47"/><path class="cls-3" d="M210.87,151.87"/><path class="cls-3" d="M214.86,150.65"/><path class="cls-3" d="M213.81,151.37"/><path class="cls-3" d="M220.38,138"/><path class="cls-3" d="M219.71,139.77"/><path class="cls-3" d="M220.7,137"/><path class="cls-3" d="M216.61,143.86"/><path class="cls-3" d="M216.45,143.46"/><path class="cls-3" d="M222.78,151.9"/><path class="cls-3" d="M225.87,151.21"/><path class="cls-3" d="M226.93,136"/><path class="cls-3" d="M224.69,133.31"/><path class="cls-3" d="M226.6,132.62"/><path class="cls-3" d="M226.53,133.21"/><path class="cls-3" d="M227.38,130.14"/><path class="cls-3" d="M231.31,132"/><path class="cls-3" d="M228.51,130.93"/><path class="cls-3" d="M227.85,133.57"/><path class="cls-3" d="M231.15,141"/><path class="cls-3" d="M230.38,140.63"/><path class="cls-3" d="M233.03,140.3"/><path class="cls-3" d="M216.18,140.43"/><path class="cls-3" d="M220.38,138.75"/><path class="cls-3" d="M220.6,138.58"/><path class="cls-3" d="M239.75,151.84"/><path class="cls-3" d="M239.49,151.34"/><path class="cls-3" d="M253.63,142.37"/><path class="cls-3" d="M251.09,151.37"/><path class="cls-3" d="M247.67,151.21"/><path class="cls-3" d="M258.31,151.67"/><path class="cls-3" d="M261.48,151.18"/><path class="cls-3" d="M202.25,151.87"/><path class="cls-3" d="M124.86,151.23"/><path class="cls-3" d="M125.31,152"/><path class="cls-3" d="M159.73,152.46"/><path class="cls-3" d="M243.84,152.91"/><path class="cls-3" d="M120.53076,147.69434v-9.75977c0-1.43945-.64014-2.46289-2.3042-2.46289a4.1055,4.1055,0,0,0-3.1997,1.791v10.43164h-4.09571v-9.75976c0-1.43946-.63965-2.4629-2.30371-2.4629a4.213,4.213,0,0,0-3.19971,1.791v10.43165h-4.064v-15.455h4.064v1.98437a6.9225,6.9225,0,0,1,5.05568-2.36816c2.272,0,3.74365,1.05566,4.28759,2.78418a6.62079,6.62079,0,0,1,5.31153-2.78418c2.84813,0,4.54393,1.50391,4.54393,4.67187v11.167Z"/><path class="cls-3" d="M137.93945,147.69434V146.0625a6.30419,6.30419,0,0,1-4.896,2.01562,5.12221,5.12221,0,0,1-5.3385-4.89636q-.0048-.11133-.00476-.22278c0-3.64843,2.87939-4.99218,5.34326-4.99218a6.31075,6.31075,0,0,1,4.896,1.88769v-1.95117c0-1.56836-1.34424-2.5918-3.39209-2.5918a6.49782,6.49782,0,0,0-4.44775,1.82326L128.5,134.28711a9.98015,9.98015,0,0,1,6.75146-2.43164c3.55176,0,6.78371,1.4082,6.78371,5.85547v9.9834Zm0-3.71192V142.0625a4.08784,4.08784,0,0,0-3.26416-1.376c-1.59961,0-2.91162.86426-2.91162,2.33594s1.312,2.30371,2.91162,2.30371A4.064,4.064,0,0,0,137.93945,143.98242Z"/><path class="cls-3" d="M146.03564,147.69434V132.23926h4.064v2.08008a6.77846,6.77846,0,0,1,4.92773-2.46387v3.96777a5.2509,5.2509,0,0,0-4.92773,1.66406v10.207Z"/><path class="cls-3" d="M156.56445,139.95117a7.85674,7.85674,0,0,1,7.60665-8.09913q.29235-.00918.58476.00343a7.19249,7.19249,0,0,1,6.11133,2.78418l-2.65625,2.49512a3.746,3.746,0,0,0-3.26367-1.66309,4.12924,4.12924,0,0,0-4.19141,4.47949c0,2.6875,1.72754,4.51172,4.19141,4.51172a3.84861,3.84861,0,0,0,3.26367-1.69629l2.65625,2.4961a7.20687,7.20687,0,0,1-6.11133,2.81541,7.86425,7.86425,0,0,1-8.189-7.52545Q156.55413,140.25206,156.56445,139.95117Z"/><path class="cls-3" d="M182.80273,147.69434V146.0625a6.30314,6.30314,0,0,1-4.8955,2.01562,5.12258,5.12258,0,0,1-5.339-4.89665q-.0048-.11118-.00477-.22249c0-3.64843,2.87988-4.99218,5.34375-4.99218a6.30889,6.30889,0,0,1,4.8955,1.88769v-1.95117c0-1.56836-1.34375-2.5918-3.3916-2.5918a6.49485,6.49485,0,0,0-4.44726,1.82326l-1.60059-2.84766a9.98315,9.98315,0,0,1,6.75195-2.43164c3.55176,0,6.78321,1.40821,6.78321,5.85547v9.9834Zm0-3.71192V142.0625a4.08546,4.08546,0,0,0-3.26367-1.376c-1.59961,0-2.91211.86426-2.91211,2.33594s1.3125,2.30371,2.91211,2.30371A4.06153,4.06153,0,0,0,182.80273,143.98242Z"/><path class="cls-3" d="M201.52246,147.69434v-1.9834a5.95439,5.95439,0,0,1-4.76758,2.36718c-3.87109,0-6.84668-2.94334-6.84668-8.127,0-5.02344,2.91114-8.09571,6.84668-8.09571a5.85982,5.85982,0,0,1,4.76758,2.36817v-7.87207h4.0957v21.34277Zm0-4.99123v-5.47166a4.40383,4.40383,0,0,0-3.4873-1.75977c-2.33594,0-3.93555,1.82324-3.93555,4.47949,0,2.6875,1.59961,4.51172,3.93555,4.51172a4.40658,4.40658,0,0,0,3.4873-1.75977Z"/><path class="cls-3" d="M209.65137,147.69434V132.23926h4.06347v2.08008a6.77856,6.77856,0,0,1,4.92774-2.46387v3.96777a5.251,5.251,0,0,0-4.92774,1.66406v10.207Z"/><path class="cls-3" d="M220.78711,128.14355a2.41607,2.41607,0,1,1,0,.03669Q220.787,128.1619,220.78711,128.14355Zm.38379,19.5508V132.23926h4.06348v15.45508Z"/><path class="cls-3" d="M238.5459,147.69434V146.0625a6.30316,6.30316,0,0,1-4.89551,2.01562,5.12257,5.12257,0,0,1-5.339-4.89665q-.00482-.11118-.00478-.22249c0-3.64843,2.87988-4.99218,5.34375-4.99218a6.3089,6.3089,0,0,1,4.89551,1.88769v-1.95117c0-1.56836-1.34375-2.5918-3.3916-2.5918a6.4949,6.4949,0,0,0-4.44727,1.82326l-1.60058-2.84766a9.98312,9.98312,0,0,1,6.75195-2.43164c3.55176,0,6.7832,1.40821,6.7832,5.85547v9.9834Zm0-3.71192V142.0625a4.08548,4.08548,0,0,0-3.26367-1.376c-1.59961,0-2.91114.86426-2.91114,2.33594s1.31153,2.30371,2.91114,2.30371A4.06161,4.06161,0,0,0,238.5459,143.98242Z"/><path class="cls-3" d="M257.07422,147.69434v-9.34375c0-2.14356-1.12012-2.87891-2.84766-2.87891a4.52133,4.52133,0,0,0-3.52051,1.791v10.43164h-4.06347V132.23926h4.06347v1.98437a7.22887,7.22887,0,0,1,5.40821-2.36816c3.42383,0,5.05566,1.91992,5.05566,4.92773v10.91114Z"/><path class="cls-3" d="M101.67578,160.96875v-2.667h1.07129a.80431.80431,0,1,1,0,1.60742h-.73975v1.05957Zm1.563-1.86328a.49569.49569,0,0,0-.53174-.50781h-.69971v1.01562h.69971A.4957.4957,0,0,0,103.23877,159.10547Z"/><path class="cls-3" d="M107.627,160.96875l-.67578-1.05957h-.53564v1.05957H106.084v-2.667h1.07129a.78012.78012,0,0,1,.83936.80371.74012.74012,0,0,1-.69531.77637l.71923,1.08691Zm.02393-1.86328a.4968.4968,0,0,0-.53565-.50781h-.6997v1.01953h.6997A.502.502,0,0,0,107.65088,159.10547Z"/><path class="cls-3" d="M110.47217,159.6377a1.32624,1.32624,0,1,1,1.32324,1.3789A1.30254,1.30254,0,0,1,110.47217,159.6377Zm2.30664,0a.98621.98621,0,1,0-.9834,1.083A.99058.99058,0,0,0,112.77881,159.6377Z"/><path class="cls-3" d="M115.7002,160.96875v-2.667h1.74707v.2959h-1.41553v.86035H117.419v.29492h-1.38721v1.21582Z"/><path class="cls-3" d="M119.96436,160.96875v-2.667h1.74707v.2959H120.2959v.86035h1.38721v.29492H120.2959v.91992h1.41553v.2959Z"/><path class="cls-3" d="M124.13965,160.59277l.19971-.25586a1.10015,1.10015,0,0,0,.83593.38379c.47559,0,.62744-.25586.62744-.46386,0-.6875-1.5791-.30372-1.5791-1.25489,0-.43945.3916-.74414.91944-.74414a1.25442,1.25442,0,0,1,.94336.376l-.19971.24414a1.00681,1.00681,0,0,0-.77149-.32031c-.31591,0-.54785.17187-.54785.42383,0,.5996,1.5791.25585,1.5791,1.25195,0,.38379-.26367.7832-.98339.7832A1.32623,1.32623,0,0,1,124.13965,160.59277Z"/><path class="cls-3" d="M128.54346,160.59277l.20019-.25586a1.09825,1.09825,0,0,0,.83545.38379c.47559,0,.62744-.25586.62744-.46386,0-.6875-1.5791-.30372-1.5791-1.25489,0-.43945.3916-.74414.91944-.74414a1.2544,1.2544,0,0,1,.94335.376l-.1997.24414a1.00681,1.00681,0,0,0-.77149-.32031c-.31592,0-.54785.17187-.54785.42383,0,.5996,1.5791.25585,1.5791,1.25195,0,.38379-.26367.7832-.9834.7832A1.32621,1.32621,0,0,1,128.54346,160.59277Z"/><path class="cls-3" d="M133.10742,160.96875v-2.667h.33154v2.667Z"/><path class="cls-3" d="M136.01562,159.6377a1.32625,1.32625,0,1,1,1.32325,1.3789A1.30255,1.30255,0,0,1,136.01562,159.6377Zm2.30665,0a.98621.98621,0,1,0-.9834,1.083A.99058.99058,0,0,0,138.32227,159.6377Z"/><path class="cls-3" d="M143.13037,160.96875l-1.55517-2.12695v2.12695h-.33155v-2.667h.33985l1.53515,2.083v-2.083h.33155v2.667Z"/><path class="cls-3" d="M148.03857,160.96875l-.23584-.5957h-1.32714l-.23584.5957h-.37989l1.0752-2.667h.41162l1.07178,2.667Zm-.89941-2.32715-.564,1.43945h1.13134Z"/><path class="cls-3" d="M150.78418,160.96875v-2.667h.33105v2.37109h1.23926v.2959Z"/><path class="cls-3" d="M159.99512,160.96875l-.58789-2.15039-.58692,2.15039H158.46l-.75976-2.667h.36816l.5918,2.22363.61132-2.22363h.27637l.61133,2.22363.58789-2.22363h.37109l-.76269,2.667Z"/><path class="cls-3" d="M163.54785,160.96875v-2.667h1.74707v.2959h-1.415v.86035h1.3877v.29492h-1.3877v.91992h1.415v.2959Z"/><path class="cls-3" d="M167.88379,160.96875v-2.667h1.1875a.67325.67325,0,0,1,.74805.67969.60726.60726,0,0,1-.46778.6123.66621.66621,0,0,1,.51953.65527.69531.69531,0,0,1-.77148.71973Zm1.5918-1.93848a.41978.41978,0,0,0-.46-.43261h-.7998v.86035h.7998A.41479.41479,0,0,0,169.47559,159.03027Zm.05175,1.18262a.45233.45233,0,0,0-.49218-.46h-.81934v.91992h.81934A.43975.43975,0,0,0,169.52734,160.21289Z"/><path class="cls-3" d="M172.46,160.96875v-2.667h.91211a1.33391,1.33391,0,1,1,0,2.667Zm1.93555-1.33105a.97553.97553,0,0,0-1.02344-1.04H172.792v2.07519h.58008A.98062.98062,0,0,0,174.39551,159.6377Z"/><path class="cls-3" d="M177.31934,160.96875v-2.667h1.74707v.2959h-1.415v.86035h1.38769v.29492h-1.38769v.91992h1.415v.2959Z"/><path class="cls-3" d="M182.45508,160.96875l-1.0752-2.667h.37989l.89941,2.30273.89941-2.30273h.37989l-1.07129,2.667Z"/><path class="cls-3" d="M189.33594,159.6377a1.33437,1.33437,0,0,1,1.37109-1.37989,1.1846,1.1846,0,0,1,1.01172.52832l-.27637.15528a.89641.89641,0,0,0-.73535-.3877,1.085,1.085,0,0,0,0,2.167.90656.90656,0,0,0,.73535-.38769l.28028.15234a1.20008,1.20008,0,0,1-1.01563.53125A1.33356,1.33356,0,0,1,189.33594,159.6377Z"/><path class="cls-3" d="M195.751,160.96875l-.67481-1.05957H194.54v1.05957h-.332v-2.667h1.07129a.78026.78026,0,0,1,.83984.80371.74044.74044,0,0,1-.69531.77637l.71972,1.08691Zm.02441-1.86328a.49694.49694,0,0,0-.53613-.50781H194.54v1.01953h.69922A.50208.50208,0,0,0,195.77539,159.10547Z"/><path class="cls-3" d="M200.60742,160.96875l-.23633-.5957H199.044l-.23536.5957h-.37988l1.0752-2.667h.41211l1.07128,2.667Zm-.89941-2.32715-.56348,1.43945h1.13086Z"/><path class="cls-3" d="M203.39551,160.96875v-2.667h1.74707v.2959h-1.415v.86035h1.38769v.29492h-1.38769v1.21582Z"/><path class="cls-3" d="M208.32031,160.96875v-2.37109h-.84375v-.2959H209.499v.2959h-.84668v2.37109Z"/><path class="cls-3" d="M212,160.96875v-2.667h1.74707v.2959h-1.415v.86035h1.3877v.29492H212.332v.91992h1.415v.2959Z"/><path class="cls-3" d="M216.33594,160.96875v-2.667h.91211a1.33391,1.33391,0,1,1,0,2.667Zm1.93554-1.33105a.97552.97552,0,0,0-1.02343-1.04H216.668v2.07519h.58008A.98061.98061,0,0,0,218.27148,159.6377Z"/><path class="cls-3" d="M226.33105,160.96875l-.58789-2.15039-.58691,2.15039h-.36035l-.75977-2.667h.36817l.59179,2.22363.61133-2.22363h.27637l.61133,2.22363.58789-2.22363h.37109l-.76269,2.667Z"/><path class="cls-3" d="M229.88477,160.96875v-2.667h.332v2.667Z"/><path class="cls-3" d="M233.56055,160.96875v-2.37109h-.84375v-.2959h2.02246v.2959h-.84668v2.37109Z"/><path class="cls-3" d="M239.13281,160.96875v-1.22363h-1.55957v1.22363h-.332v-2.667h.332v1.14746h1.55957v-1.14746h.33106v2.667Z"/><path class="cls-3" d="M245.1377,159.6377a1.33437,1.33437,0,0,1,1.37109-1.37989,1.18461,1.18461,0,0,1,1.01172.52832l-.27637.15528a.89642.89642,0,0,0-.73535-.3877,1.085,1.085,0,0,0,0,2.167.90657.90657,0,0,0,.73535-.38769l.28027.15234a1.20135,1.20135,0,0,1-1.01562.53125A1.33356,1.33356,0,0,1,245.1377,159.6377Z"/><path class="cls-3" d="M251.90039,160.96875l-.23633-.5957h-1.32715l-.23535.5957h-.37988l1.0752-2.667h.4121l1.07129,2.667Zm-.89941-2.32715-.56348,1.43945h1.13086Z"/><path class="cls-3" d="M256.23145,160.96875l-.67481-1.05957h-.53613v1.05957h-.332v-2.667h1.07129a.78026.78026,0,0,1,.83984.80371.74044.74044,0,0,1-.69531.77637l.71972,1.08691Zm.02441-1.86328a.49694.49694,0,0,0-.53613-.50781h-.69922v1.01953h.69922A.50208.50208,0,0,0,256.25586,159.10547Z"/><path class="cls-3" d="M259.18457,160.96875v-2.667h1.74707v.2959h-1.415v.86035h1.3877v.29492h-1.3877v.91992h1.415v.2959Z"/></svg>