<svg xmlns="http://www.w3.org/2000/svg" id="Layer_1" data-name="Layer 1" viewBox="0 0 300 300"><defs><linearGradient id="linear-gradient" x1="-1224.489" x2="-1223.549" y1="159.682" y2="159.682" gradientTransform="matrix(41.78 19.48 -19.48 41.78 54312.079 17316.32)" gradientUnits="userSpaceOnUse"><stop offset="0" stop-color="#eb4c00"/><stop offset="1" stop-color="#f2a900"/></linearGradient><style>.cls-3{fill:#361c00}</style></defs><path d="M0 0h300v300H0z" style="fill:#fef2e5"/><path d="M44.38 124.2v43.2h43.2v-43.2Zm34.5 18.1 1.7 1.7 1.7 1.7-3.2 3.2-3.2 3.2-4.9 4.9-5 5-1.7-1.7-1.7-1.7 3.2-3.2 3.2-3.2-1.5-1.5-1.5-1.5-3.2 3.2-3.3 3.2-1.7-1.7-1.7-1.7 3.2-3.2 3.2-3.2-1.5-1.5-1.5-1.5-3.2 3.2-3.2 3.2-1.7-1.7-1.7-1.7 8.2-8.2 8.2-8.2 1.7 1.7 1.7 1.7-3.2 3.2-3.3 3.2 1.5 1.5 1.5 1.5 2.1-2.1 2.1-2.1 3.2 3.2 3.2 3.2m-2.2 2.5-1.5-1.5-1.5-1.5-1 1-1 1 1.5 1.5 1.5 1.5" style="fill:url(#linear-gradient)"/><path d="M120.53 147.694v-9.76c0-1.439-.64-2.462-2.303-2.462a4.106 4.106 0 0 0-3.2 1.79v10.432h-4.096v-9.76c0-1.439-.64-2.462-2.304-2.462a4.213 4.213 0 0 0-3.2 1.79v10.432h-4.063V132.24h4.064v1.985a6.923 6.923 0 0 1 5.055-2.368c2.272 0 3.744 1.055 4.288 2.784a6.62 6.62 0 0 1 5.312-2.784c2.848 0 4.543 1.503 4.543 4.671v11.167ZM137.94 147.694v-1.631a6.304 6.304 0 0 1-4.897 2.015 5.122 5.122 0 0 1-5.338-4.896q-.005-.112-.005-.223c0-3.648 2.88-4.992 5.343-4.992a6.31 6.31 0 0 1 4.896 1.887v-1.95c0-1.569-1.344-2.592-3.392-2.592a6.498 6.498 0 0 0-4.447 1.823l-1.6-2.848a9.98 9.98 0 0 1 6.751-2.432c3.552 0 6.784 1.409 6.784 5.856v9.983Zm0-3.712v-1.92a4.088 4.088 0 0 0-3.265-1.376c-1.6 0-2.911.865-2.911 2.336s1.312 2.304 2.911 2.304a4.064 4.064 0 0 0 3.264-1.344ZM146.036 147.694V132.24h4.064v2.08a6.778 6.778 0 0 1 4.927-2.464v3.968a5.25 5.25 0 0 0-4.927 1.664v10.207ZM156.564 139.951a7.857 7.857 0 0 1 7.607-8.099q.292-.01.585.003a7.192 7.192 0 0 1 6.111 2.785l-2.656 2.495a3.746 3.746 0 0 0-3.264-1.663 4.13 4.13 0 0 0-4.191 4.48c0 2.687 1.727 4.51 4.191 4.51a3.849 3.849 0 0 0 3.264-1.695l2.656 2.496a7.207 7.207 0 0 1-6.111 2.815 7.864 7.864 0 0 1-8.19-7.525q-.012-.3-.002-.602ZM182.803 147.694v-1.631a6.303 6.303 0 0 1-4.896 2.015 5.123 5.123 0 0 1-5.339-4.897q-.005-.11-.005-.222c0-3.648 2.88-4.992 5.344-4.992a6.309 6.309 0 0 1 4.896 1.887v-1.95c0-1.569-1.344-2.592-3.392-2.592a6.495 6.495 0 0 0-4.447 1.823l-1.6-2.848a9.983 9.983 0 0 1 6.751-2.432c3.552 0 6.783 1.409 6.783 5.856v9.983Zm0-3.712v-1.92a4.085 4.085 0 0 0-3.264-1.376c-1.6 0-2.912.865-2.912 2.336s1.312 2.304 2.912 2.304a4.062 4.062 0 0 0 3.264-1.344ZM201.522 147.694v-1.983a5.954 5.954 0 0 1-4.767 2.367c-3.871 0-6.847-2.943-6.847-8.127 0-5.023 2.911-8.096 6.847-8.096a5.86 5.86 0 0 1 4.767 2.369v-7.872h4.096v21.342Zm0-4.99v-5.473a4.404 4.404 0 0 0-3.487-1.76c-2.336 0-3.935 1.824-3.935 4.48 0 2.688 1.6 4.512 3.935 4.512a4.407 4.407 0 0 0 3.487-1.76ZM209.651 147.694V132.24h4.064v2.08a6.779 6.779 0 0 1 4.928-2.464v3.968a5.251 5.251 0 0 0-4.928 1.664v10.207ZM220.787 128.144a2.416 2.416 0 1 1 0 .036v-.036Zm.384 19.55V132.24h4.063v15.455ZM238.546 147.694v-1.631a6.303 6.303 0 0 1-4.896 2.015 5.123 5.123 0 0 1-5.339-4.897q-.004-.11-.004-.222c0-3.648 2.88-4.992 5.343-4.992a6.309 6.309 0 0 1 4.896 1.887v-1.95c0-1.569-1.344-2.592-3.392-2.592a6.495 6.495 0 0 0-4.447 1.823l-1.6-2.848a9.983 9.983 0 0 1 6.751-2.432c3.552 0 6.784 1.409 6.784 5.856v9.983Zm0-3.712v-1.92a4.085 4.085 0 0 0-3.264-1.376c-1.6 0-2.91.865-2.91 2.336s1.31 2.304 2.91 2.304a4.062 4.062 0 0 0 3.264-1.344ZM257.074 147.694v-9.343c0-2.144-1.12-2.88-2.847-2.88a4.521 4.521 0 0 0-3.52 1.792v10.431h-4.064V132.24h4.063v1.985a7.229 7.229 0 0 1 5.408-2.369c3.424 0 5.056 1.92 5.056 4.928v10.911ZM101.676 160.969v-2.667h1.071a.804.804 0 1 1 0 1.607h-.74v1.06Zm1.563-1.864a.496.496 0 0 0-.532-.507h-.7v1.015h.7a.496.496 0 0 0 .532-.508ZM107.627 160.969l-.676-1.06h-.535v1.06h-.332v-2.667h1.071a.78.78 0 0 1 .84.803.74.74 0 0 1-.696.777l.72 1.087Zm.024-1.864a.497.497 0 0 0-.536-.507h-.7v1.02h.7a.502.502 0 0 0 .536-.513ZM110.472 159.638a1.326 1.326 0 1 1 1.323 1.379 1.303 1.303 0 0 1-1.323-1.38Zm2.307 0a.986.986 0 1 0-.984 1.083.99.99 0 0 0 .984-1.083ZM115.7 160.969v-2.667h1.747v.296h-1.415v.86h1.387v.295h-1.387v1.216ZM119.964 160.969v-2.667h1.747v.296h-1.415v.86h1.387v.295h-1.387v.92h1.415v.296ZM124.14 160.593l.2-.256a1.1 1.1 0 0 0 .835.384c.476 0 .628-.256.628-.464 0-.688-1.58-.304-1.58-1.255 0-.44.392-.744.92-.744a1.254 1.254 0 0 1 .943.376l-.2.244a1.007 1.007 0 0 0-.77-.32c-.317 0-.549.172-.549.423 0 .6 1.58.256 1.58 1.252 0 .384-.264.784-.984.784a1.326 1.326 0 0 1-1.023-.424ZM128.543 160.593l.2-.256a1.098 1.098 0 0 0 .836.384c.476 0 .628-.256.628-.464 0-.688-1.58-.304-1.58-1.255 0-.44.392-.744.92-.744a1.254 1.254 0 0 1 .943.376l-.2.244a1.007 1.007 0 0 0-.771-.32c-.316 0-.548.172-.548.423 0 .6 1.58.256 1.58 1.252 0 .384-.264.784-.984.784a1.326 1.326 0 0 1-1.024-.424ZM133.107 160.969v-2.667h.332v2.667ZM136.016 159.638a1.326 1.326 0 1 1 1.323 1.379 1.303 1.303 0 0 1-1.323-1.38Zm2.306 0a.986.986 0 1 0-.983 1.083.99.99 0 0 0 .983-1.083ZM143.13 160.969l-1.555-2.127v2.127h-.331v-2.667h.34l1.535 2.083v-2.083h.331v2.667ZM148.039 160.969l-.236-.596h-1.327l-.236.596h-.38l1.075-2.667h.412l1.071 2.667Zm-.9-2.327-.564 1.44h1.132ZM150.784 160.969v-2.667h.331v2.37h1.24v.297ZM159.995 160.969l-.588-2.15-.587 2.15h-.36l-.76-2.667h.368l.592 2.223.612-2.223h.276l.611 2.223.588-2.223h.371l-.762 2.667ZM163.548 160.969v-2.667h1.747v.296h-1.415v.86h1.388v.295h-1.388v.92h1.415v.296ZM167.884 160.969v-2.667h1.187a.673.673 0 0 1 .748.68.607.607 0 0 1-.467.612.666.666 0 0 1 .52.655.695.695 0 0 1-.772.72Zm1.592-1.939a.42.42 0 0 0-.46-.432h-.8v.86h.8a.415.415 0 0 0 .46-.428Zm.051 1.183a.452.452 0 0 0-.492-.46h-.82v.92h.82a.44.44 0 0 0 .492-.46ZM172.46 160.969v-2.667h.912a1.334 1.334 0 1 1 0 2.667Zm1.936-1.331a.976.976 0 0 0-1.024-1.04h-.58v2.075h.58a.98.98 0 0 0 1.024-1.035ZM177.32 160.969v-2.667h1.746v.296h-1.415v.86h1.388v.295h-1.388v.92h1.415v.296ZM182.455 160.969l-1.075-2.667h.38l.9 2.302.899-2.302h.38l-1.072 2.667ZM189.336 159.638a1.334 1.334 0 0 1 1.371-1.38 1.185 1.185 0 0 1 1.012.528l-.277.155a.896.896 0 0 0-.735-.387 1.085 1.085 0 0 0 0 2.167.907.907 0 0 0 .735-.388l.28.152a1.2 1.2 0 0 1-1.015.532 1.334 1.334 0 0 1-1.371-1.38ZM195.751 160.969l-.675-1.06h-.536v1.06h-.332v-2.667h1.071a.78.78 0 0 1 .84.803.74.74 0 0 1-.695.777l.72 1.087Zm.024-1.864a.497.497 0 0 0-.536-.507h-.699v1.02h.7a.502.502 0 0 0 .535-.513ZM200.607 160.969l-.236-.596h-1.327l-.235.596h-.38l1.075-2.667h.412l1.071 2.667Zm-.899-2.327-.563 1.44h1.13ZM203.396 160.969v-2.667h1.747v.296h-1.415v.86h1.387v.295h-1.387v1.216ZM208.32 160.969v-2.371h-.843v-.296h2.022v.296h-.847v2.37ZM212 160.969v-2.667h1.747v.296h-1.415v.86h1.388v.295h-1.388v.92h1.415v.296ZM216.336 160.969v-2.667h.912a1.334 1.334 0 1 1 0 2.667Zm1.935-1.331a.976.976 0 0 0-1.023-1.04h-.58v2.075h.58a.98.98 0 0 0 1.023-1.035ZM226.331 160.969l-.588-2.15-.587 2.15h-.36l-.76-2.667h.368l.592 2.223.611-2.223h.277l.611 2.223.588-2.223h.371l-.763 2.667ZM229.885 160.969v-2.667h.332v2.667ZM233.56 160.969v-2.371h-.843v-.296h2.022v.296h-.846v2.37ZM239.133 160.969v-1.224h-1.56v1.224h-.332v-2.667h.332v1.147h1.56v-1.147h.33v2.667ZM245.138 159.638a1.334 1.334 0 0 1 1.37-1.38 1.185 1.185 0 0 1 1.013.528l-.277.155a.896.896 0 0 0-.735-.387 1.085 1.085 0 0 0 0 2.167.907.907 0 0 0 .735-.388l.28.152a1.201 1.201 0 0 1-1.015.532 1.334 1.334 0 0 1-1.371-1.38ZM251.9 160.969l-.236-.596h-1.327l-.235.596h-.38l1.075-2.667h.412l1.071 2.667Zm-.899-2.327-.564 1.44h1.131ZM256.231 160.969l-.674-1.06h-.536v1.06h-.332v-2.667h1.07a.78.78 0 0 1 .84.803.74.74 0 0 1-.695.777l.72 1.087Zm.025-1.864a.497.497 0 0 0-.536-.507h-.7v1.02h.7a.502.502 0 0 0 .536-.513ZM259.185 160.969v-2.667h1.747v.296h-1.415v.86h1.387v.295h-1.387v.92h1.415v.296Z" class="cls-3"/></svg>